<?xml version="1.0" encoding="utf-8"?>
<!-- Generator: Adobe Illustrator 28.0.0, SVG Export Plug-In . SVG Version: 6.00 Build 0)  -->
<svg version="1.1" id="Layer_1" xmlns="http://www.w3.org/2000/svg" xmlns:xlink="http://www.w3.org/1999/xlink" x="0px" y="0px"
	 viewBox="0 0 127.5 127.5" style="enable-background:new 0 0 127.5 127.5;" xml:space="preserve">
<style type="text/css">
	.st0{clip-path:url(#SVGID_00000170244027941233561810000012634161305306224010_);fill:#222633;}
	.st1{clip-path:url(#SVGID_00000170244027941233561810000012634161305306224010_);fill:none;stroke:#F6F6F9;stroke-width:12;}
	.st2{fill:#222633;}
	.st3{fill:#F6F6F9;}
</style>
<g>
	<defs>
		<path id="SVGID_1_" d="M0,63.75c0-2.09,0.11-4.17,0.31-6.25c0.2-2.08,0.51-4.14,0.92-6.19c0.41-2.05,0.91-4.07,1.52-6.07
			c0.6-2,1.31-3.96,2.11-5.89c0.8-1.93,1.69-3.82,2.67-5.66c0.98-1.84,2.06-3.63,3.22-5.37c1.16-1.74,2.4-3.41,3.72-5.02
			c1.33-1.61,2.73-3.16,4.21-4.64c1.47-1.48,3.02-2.88,4.63-4.2c1.61-1.32,3.29-2.57,5.03-3.73c1.73-1.16,3.52-2.23,5.36-3.22
			c1.84-0.98,3.73-1.88,5.66-2.68c1.93-0.8,3.89-1.5,5.89-2.11c2-0.61,4.02-1.11,6.07-1.52c2.04-0.41,4.11-0.71,6.18-0.92
			C59.58,0.1,61.67,0,63.75,0c2.09,0,4.17,0.1,6.25,0.31c2.08,0.2,4.14,0.51,6.19,0.92c2.05,0.41,4.07,0.91,6.07,1.52
			c2,0.61,3.96,1.31,5.89,2.11c1.93,0.8,3.81,1.69,5.65,2.68c1.85,0.98,3.63,2.06,5.37,3.22c1.74,1.16,3.41,2.4,5.03,3.73
			c1.61,1.33,3.16,2.73,4.63,4.2c1.48,1.48,2.88,3.02,4.2,4.64c1.33,1.61,2.57,3.29,3.73,5.02c1.16,1.74,2.23,3.53,3.22,5.37
			c0.98,1.84,1.87,3.73,2.67,5.66s1.5,3.89,2.11,5.89c0.6,2,1.11,4.02,1.52,6.07c0.41,2.05,0.71,4.11,0.92,6.19
			c0.2,2.08,0.3,4.16,0.3,6.25c0,2.09-0.1,4.17-0.3,6.25c-0.21,2.08-0.51,4.14-0.92,6.19c-0.41,2.05-0.92,4.07-1.52,6.07
			c-0.61,2-1.31,3.96-2.11,5.89s-1.69,3.81-2.67,5.65c-0.99,1.84-2.06,3.63-3.22,5.37c-1.16,1.74-2.4,3.41-3.73,5.02
			c-1.32,1.61-2.72,3.16-4.2,4.64c-1.47,1.48-3.02,2.88-4.63,4.2c-1.62,1.32-3.29,2.57-5.03,3.73c-1.74,1.16-3.52,2.23-5.37,3.22
			c-1.84,0.98-3.72,1.88-5.65,2.68c-1.93,0.8-3.89,1.5-5.89,2.11c-2,0.61-4.02,1.11-6.07,1.52c-2.05,0.41-4.11,0.71-6.19,0.92
			c-2.08,0.2-4.16,0.31-6.25,0.31c-2.08,0-4.17-0.1-6.25-0.31c-2.07-0.2-4.14-0.51-6.18-0.92c-2.05-0.41-4.07-0.91-6.07-1.52
			c-2-0.61-3.96-1.31-5.89-2.11c-1.93-0.8-3.82-1.69-5.66-2.68c-1.84-0.98-3.63-2.06-5.36-3.22c-1.74-1.16-3.42-2.4-5.03-3.73
			c-1.61-1.32-3.16-2.73-4.63-4.2c-1.48-1.48-2.88-3.02-4.21-4.64c-1.32-1.61-2.56-3.29-3.72-5.02c-1.16-1.74-2.24-3.52-3.22-5.37
			c-0.98-1.84-1.87-3.73-2.67-5.65c-0.8-1.93-1.51-3.89-2.11-5.89c-0.61-2-1.11-4.02-1.52-6.07C0.82,74.14,0.51,72.08,0.31,70
			C0.11,67.92,0,65.84,0,63.75"/>
	</defs>
	<clipPath id="SVGID_00000026148165327736725810000010471223974647834271_">
		<use xlink:href="#SVGID_1_"  style="overflow:visible;"/>
	</clipPath>
	<path style="clip-path:url(#SVGID_00000026148165327736725810000010471223974647834271_);fill:#222633;" d="M127.5,63.75
		c0,1.04-0.02,2.09-0.07,3.13s-0.13,2.08-0.23,3.12c-0.11,1.04-0.23,2.07-0.39,3.11c-0.15,1.03-0.33,2.06-0.53,3.08
		c-0.21,1.02-0.43,2.04-0.69,3.05c-0.25,1.01-0.53,2.02-0.83,3.01c-0.3,1-0.63,1.99-0.98,2.97c-0.35,0.98-0.73,1.96-1.13,2.92
		c-0.4,0.96-0.82,1.92-1.27,2.86c-0.44,0.94-0.91,1.88-1.4,2.8c-0.5,0.92-1.01,1.83-1.55,2.72c-0.53,0.89-1.09,1.78-1.67,2.64
		c-0.58,0.87-1.18,1.72-1.8,2.56c-0.62,0.84-1.27,1.66-1.93,2.47c-0.66,0.81-1.34,1.6-2.04,2.37c-0.7,0.77-1.42,1.53-2.16,2.27
		c-0.74,0.74-1.49,1.46-2.26,2.16c-0.78,0.7-1.57,1.38-2.37,2.04c-0.81,0.66-1.63,1.3-2.47,1.92c-0.84,0.62-1.69,1.22-2.56,1.8
		c-0.87,0.58-1.75,1.14-2.64,1.67c-0.9,0.54-1.8,1.05-2.72,1.54c-0.93,0.49-1.86,0.96-2.8,1.41c-0.94,0.45-1.9,0.87-2.86,1.27
		s-1.94,0.77-2.92,1.13c-0.98,0.35-1.97,0.68-2.97,0.98c-1,0.3-2,0.58-3.02,0.83c-1.01,0.25-2.03,0.48-3.05,0.69
		c-1.02,0.2-2.05,0.38-3.08,0.53c-1.03,0.15-2.07,0.28-3.11,0.38c-1.04,0.1-2.08,0.18-3.12,0.23c-1.04,0.05-2.08,0.08-3.13,0.08
		c-1.04,0-2.08-0.03-3.12-0.08c-1.05-0.05-2.09-0.13-3.13-0.23c-1.03-0.1-2.07-0.23-3.1-0.38c-1.03-0.15-2.06-0.33-3.08-0.53
		c-1.03-0.2-2.04-0.43-3.06-0.69c-1.01-0.25-2.01-0.53-3.01-0.83c-1-0.3-1.99-0.63-2.97-0.98c-0.99-0.35-1.96-0.73-2.92-1.13
		c-0.97-0.4-1.92-0.82-2.86-1.27c-0.95-0.45-1.88-0.91-2.8-1.41c-0.92-0.49-1.83-1.01-2.72-1.54c-0.9-0.54-1.78-1.1-2.64-1.67
		c-0.87-0.58-1.72-1.18-2.56-1.8c-0.84-0.62-1.66-1.26-2.47-1.92c-0.81-0.66-1.6-1.34-2.37-2.04c-0.77-0.7-1.53-1.42-2.26-2.16
		c-0.74-0.74-1.46-1.49-2.16-2.27c-0.7-0.77-1.38-1.56-2.05-2.37c-0.66-0.81-1.3-1.63-1.92-2.47c-0.62-0.84-1.22-1.69-1.8-2.56
		c-0.58-0.87-1.14-1.75-1.68-2.64c-0.53-0.9-1.05-1.8-1.54-2.72c-0.49-0.92-0.96-1.85-1.41-2.8c-0.44-0.94-0.86-1.9-1.26-2.86
		c-0.4-0.96-0.78-1.94-1.13-2.92c-0.35-0.98-0.68-1.97-0.98-2.97c-0.3-1-0.58-2-0.84-3.01c-0.25-1.01-0.48-2.03-0.68-3.05
		c-0.21-1.02-0.38-2.05-0.54-3.08C0.54,72.07,0.41,71.04,0.31,70c-0.1-1.04-0.18-2.08-0.23-3.12C0.03,65.84,0,64.79,0,63.75
		c0-1.04,0.03-2.09,0.08-3.13c0.05-1.04,0.13-2.08,0.23-3.12c0.1-1.04,0.23-2.07,0.38-3.11c0.16-1.03,0.33-2.06,0.54-3.08
		c0.2-1.02,0.43-2.04,0.68-3.05c0.26-1.01,0.54-2.02,0.84-3.02c0.3-1,0.63-1.99,0.98-2.97c0.35-0.98,0.73-1.95,1.13-2.92
		c0.4-0.96,0.82-1.92,1.26-2.86c0.45-0.94,0.92-1.88,1.41-2.79s1.01-1.83,1.54-2.72c0.54-0.89,1.1-1.78,1.68-2.64
		c0.58-0.87,1.18-1.72,1.8-2.56c0.62-0.84,1.26-1.66,1.92-2.47c0.67-0.81,1.35-1.6,2.05-2.37c0.7-0.77,1.42-1.53,2.16-2.27
		c0.73-0.74,1.49-1.46,2.26-2.16c0.77-0.7,1.56-1.38,2.37-2.04c0.81-0.66,1.63-1.3,2.47-1.92c0.84-0.62,1.69-1.22,2.56-1.8
		c0.86-0.58,1.74-1.14,2.64-1.68c0.89-0.54,1.8-1.05,2.72-1.54c0.92-0.49,1.85-0.96,2.8-1.41c0.94-0.45,1.89-0.87,2.86-1.27
		c0.96-0.4,1.93-0.77,2.92-1.13c0.98-0.35,1.97-0.68,2.97-0.98c1-0.3,2-0.58,3.01-0.84c1.02-0.25,2.03-0.48,3.06-0.69
		c1.02-0.2,2.05-0.38,3.08-0.53s2.07-0.28,3.1-0.38c1.04-0.1,2.08-0.18,3.13-0.23C61.67,0.02,62.71,0,63.75,0
		c1.05,0,2.09,0.03,3.13,0.08C67.92,0.13,68.96,0.2,70,0.31c1.04,0.1,2.08,0.23,3.11,0.38c1.03,0.15,2.06,0.33,3.08,0.53
		c1.02,0.2,2.04,0.43,3.05,0.69c1.02,0.25,2.02,0.53,3.02,0.84c1,0.3,1.99,0.63,2.97,0.98c0.98,0.35,1.96,0.73,2.92,1.13
		s1.92,0.82,2.86,1.27c0.94,0.45,1.87,0.92,2.8,1.41c0.92,0.49,1.82,1.01,2.72,1.54c0.89,0.54,1.77,1.1,2.64,1.68
		c0.87,0.58,1.72,1.18,2.56,1.8c0.84,0.62,1.66,1.26,2.47,1.92c0.8,0.66,1.59,1.34,2.37,2.04c0.77,0.7,1.52,1.42,2.26,2.16
		c0.74,0.74,1.46,1.49,2.16,2.27c0.7,0.77,1.38,1.56,2.04,2.37c0.66,0.81,1.31,1.63,1.93,2.47c0.62,0.84,1.22,1.69,1.8,2.56
		c0.58,0.87,1.14,1.75,1.67,2.64c0.54,0.89,1.05,1.8,1.55,2.72c0.49,0.92,0.96,1.85,1.4,2.79c0.45,0.94,0.87,1.9,1.27,2.86
		s0.78,1.94,1.13,2.92c0.35,0.98,0.68,1.97,0.98,2.97c0.3,1,0.58,2,0.83,3.02c0.26,1.01,0.48,2.03,0.69,3.05
		c0.2,1.02,0.38,2.05,0.53,3.08c0.16,1.03,0.28,2.07,0.39,3.11c0.1,1.04,0.18,2.08,0.23,3.12C127.48,61.66,127.5,62.71,127.5,63.75"
		/>
	
		<path style="clip-path:url(#SVGID_00000026148165327736725810000010471223974647834271_);fill:none;stroke:#F6F6F9;stroke-width:12;" d="
		M127.5,63.75c0,1.04-0.02,2.09-0.07,3.13s-0.13,2.08-0.23,3.12c-0.11,1.04-0.23,2.07-0.39,3.11c-0.15,1.03-0.33,2.06-0.53,3.08
		c-0.21,1.02-0.43,2.04-0.69,3.05c-0.25,1.01-0.53,2.02-0.83,3.01c-0.3,1-0.63,1.99-0.98,2.97c-0.35,0.98-0.73,1.96-1.13,2.92
		c-0.4,0.96-0.82,1.92-1.27,2.86c-0.44,0.94-0.91,1.88-1.4,2.8c-0.5,0.92-1.01,1.83-1.55,2.72c-0.53,0.89-1.09,1.78-1.67,2.64
		c-0.58,0.87-1.18,1.72-1.8,2.56c-0.62,0.84-1.27,1.66-1.93,2.47c-0.66,0.81-1.34,1.6-2.04,2.37c-0.7,0.77-1.42,1.53-2.16,2.27
		c-0.74,0.74-1.49,1.46-2.26,2.16c-0.78,0.7-1.57,1.38-2.37,2.04c-0.81,0.66-1.63,1.3-2.47,1.92c-0.84,0.62-1.69,1.22-2.56,1.8
		c-0.87,0.58-1.75,1.14-2.64,1.67c-0.9,0.54-1.81,1.05-2.73,1.54c-0.92,0.49-1.85,0.96-2.79,1.41c-0.94,0.45-1.9,0.87-2.86,1.27
		s-1.94,0.77-2.92,1.13c-0.98,0.35-1.97,0.68-2.97,0.98c-1,0.3-2,0.58-3.02,0.83c-1.01,0.25-2.03,0.48-3.05,0.69
		c-1.02,0.2-2.05,0.38-3.08,0.53c-1.03,0.15-2.07,0.28-3.11,0.38c-1.04,0.1-2.08,0.18-3.12,0.23c-1.04,0.05-2.08,0.08-3.13,0.08
		c-1.04,0-2.08-0.03-3.12-0.08c-1.05-0.05-2.09-0.13-3.13-0.23c-1.03-0.1-2.07-0.23-3.1-0.38c-1.03-0.15-2.06-0.33-3.08-0.53
		c-1.03-0.2-2.04-0.43-3.06-0.69c-1.01-0.25-2.01-0.53-3.01-0.83c-1-0.3-1.99-0.63-2.97-0.98c-0.99-0.35-1.96-0.73-2.92-1.13
		c-0.97-0.4-1.92-0.82-2.86-1.27c-0.95-0.45-1.88-0.91-2.8-1.41c-0.92-0.49-1.83-1.01-2.72-1.54c-0.9-0.54-1.78-1.1-2.64-1.67
		c-0.87-0.58-1.72-1.18-2.56-1.8c-0.84-0.62-1.66-1.26-2.47-1.92c-0.81-0.66-1.6-1.34-2.37-2.04c-0.77-0.7-1.53-1.42-2.26-2.16
		c-0.74-0.74-1.46-1.49-2.16-2.27c-0.7-0.77-1.38-1.56-2.05-2.37c-0.66-0.81-1.3-1.63-1.92-2.47c-0.62-0.84-1.22-1.69-1.8-2.56
		c-0.58-0.87-1.14-1.75-1.68-2.64c-0.53-0.9-1.05-1.8-1.54-2.72c-0.49-0.92-0.96-1.85-1.41-2.8c-0.44-0.94-0.86-1.9-1.26-2.86
		c-0.4-0.96-0.78-1.94-1.13-2.92c-0.35-0.98-0.68-1.97-0.98-2.97c-0.3-1-0.58-2-0.84-3.01c-0.25-1.01-0.48-2.03-0.68-3.05
		c-0.21-1.02-0.38-2.05-0.54-3.08C0.54,72.07,0.41,71.04,0.31,70c-0.1-1.04-0.18-2.08-0.23-3.12C0.03,65.84,0,64.79,0,63.75
		c0-1.04,0.03-2.09,0.08-3.13c0.05-1.04,0.13-2.08,0.23-3.12c0.1-1.04,0.23-2.07,0.38-3.11c0.16-1.03,0.33-2.06,0.54-3.08
		c0.2-1.02,0.43-2.04,0.68-3.05c0.26-1.01,0.54-2.02,0.84-3.02c0.3-1,0.63-1.99,0.98-2.97c0.35-0.98,0.73-1.95,1.13-2.92
		c0.4-0.96,0.82-1.92,1.26-2.86c0.45-0.94,0.92-1.88,1.41-2.79s1.01-1.83,1.54-2.72c0.54-0.89,1.1-1.78,1.68-2.64
		c0.58-0.87,1.18-1.72,1.8-2.56c0.62-0.84,1.26-1.66,1.92-2.47c0.67-0.81,1.35-1.6,2.05-2.37c0.7-0.77,1.42-1.53,2.16-2.27
		c0.73-0.74,1.49-1.46,2.26-2.16c0.77-0.7,1.56-1.38,2.37-2.04c0.81-0.66,1.63-1.3,2.47-1.92c0.84-0.62,1.69-1.22,2.56-1.8
		c0.86-0.58,1.74-1.14,2.64-1.67c0.89-0.54,1.8-1.05,2.72-1.54c0.92-0.49,1.85-0.96,2.8-1.41c0.94-0.45,1.89-0.87,2.86-1.27
		c0.96-0.4,1.93-0.77,2.92-1.13c0.98-0.35,1.97-0.68,2.97-0.98c1-0.3,2-0.58,3.01-0.84c1.02-0.25,2.03-0.48,3.06-0.69
		c1.02-0.2,2.05-0.38,3.08-0.53s2.07-0.28,3.1-0.38c1.04-0.1,2.08-0.18,3.13-0.23C61.67,0.02,62.71,0,63.75,0
		c1.05,0,2.09,0.03,3.13,0.08C67.92,0.13,68.96,0.2,70,0.31c1.04,0.1,2.08,0.23,3.11,0.38c1.03,0.15,2.06,0.33,3.08,0.53
		c1.02,0.2,2.04,0.43,3.05,0.69c1.02,0.25,2.02,0.53,3.02,0.84c1,0.3,1.99,0.63,2.97,0.98c0.98,0.35,1.96,0.73,2.92,1.13
		c0.96,0.4,1.92,0.82,2.86,1.27c0.94,0.45,1.87,0.91,2.79,1.41c0.92,0.49,1.83,1.01,2.73,1.54c0.89,0.54,1.77,1.1,2.64,1.67
		c0.87,0.58,1.72,1.18,2.56,1.8c0.84,0.62,1.66,1.26,2.47,1.92c0.8,0.66,1.59,1.34,2.37,2.04c0.77,0.7,1.52,1.42,2.26,2.16
		c0.74,0.74,1.46,1.49,2.16,2.27c0.7,0.77,1.38,1.56,2.04,2.37c0.66,0.81,1.31,1.63,1.93,2.47c0.62,0.84,1.22,1.69,1.8,2.56
		c0.58,0.87,1.14,1.75,1.67,2.64c0.54,0.89,1.05,1.8,1.55,2.72c0.49,0.92,0.96,1.85,1.4,2.79c0.45,0.94,0.87,1.9,1.27,2.86
		s0.78,1.94,1.13,2.92c0.35,0.98,0.68,1.97,0.98,2.97c0.3,1,0.58,2,0.83,3.02c0.26,1.01,0.48,2.03,0.69,3.05
		c0.2,1.02,0.38,2.05,0.53,3.08c0.16,1.03,0.28,2.07,0.39,3.11c0.1,1.04,0.18,2.08,0.23,3.12C127.48,61.66,127.5,62.71,127.5,63.75
		L127.5,63.75z"/>
</g>
<path class="st2" d="M84.83,66.16H43.58V24.91h41.25V66.16 M47.02,51.55v6.45c0,1.66,1.35,3.01,3.01,3.01h28.36
	c1.66,0,3-1.35,3-3.01v-6.45h-14.6v0.43c0,0.71-0.58,1.29-1.29,1.29h-2.58c-0.72,0-1.29-0.58-1.29-1.29v-0.43H47.02 M62.92,47.25
	h2.58c0.71,0,1.29,0.58,1.29,1.29v0.43h14.6V38.23c0-1.66-1.34-3.01-3-3.01h-6.45v-2.15c0-1.65-1.36-3.01-3.01-3.01h-9.45
	c-1.65,0-3.01,1.36-3.01,3.01v2.15h-6.44c-1.66,0-3.01,1.35-3.01,3.01v10.74h14.61v-0.43C61.63,47.83,62.2,47.25,62.92,47.25
	 M69.36,35.22H59.05v-2.15c0-0.25,0.18-0.43,0.43-0.43h9.45c0.26,0,0.43,0.18,0.43,0.43V35.22"/>
<path class="st3" d="M78.39,61H50.03c-1.66,0-3.01-1.35-3.01-3.01v-6.45h14.61v0.43c0,0.71,0.57,1.29,1.29,1.29h2.58
	c0.71,0,1.29-0.58,1.29-1.29v-0.43h14.6v6.45C81.39,59.65,80.05,61,78.39,61 M81.39,48.97h-14.6v-0.43c0-0.71-0.58-1.29-1.29-1.29
	h-2.58c-0.72,0-1.29,0.58-1.29,1.29v0.43H47.02V38.23c0-1.66,1.35-3.01,3.01-3.01h6.44v-2.15c0-1.65,1.36-3.01,3.01-3.01h9.45
	c1.65,0,3.01,1.36,3.01,3.01v2.15h6.45c1.66,0,3,1.35,3,3.01V48.97 M59.48,32.64c-0.25,0-0.43,0.18-0.43,0.43v2.15h10.31v-2.15
	c0-0.25-0.17-0.43-0.43-0.43H59.48"/>
<path class="st3" d="M27.03,89.24c0.66-0.29,1.28-0.74,1.85-1.35l-1.47-1.57c-0.46,0.42-0.9,0.73-1.31,0.93
	c-0.41,0.2-0.9,0.3-1.45,0.3c-0.88,0-1.61-0.32-2.18-0.96c-0.58-0.64-0.86-1.42-0.86-2.34c0-0.93,0.29-1.71,0.86-2.35
	c0.57-0.63,1.3-0.95,2.18-0.95c0.56,0,1.04,0.09,1.43,0.28c0.39,0.19,0.82,0.48,1.27,0.89l1.38-1.59c-0.56-0.55-1.15-0.97-1.77-1.27
	c-0.62-0.29-1.39-0.44-2.29-0.44c-1.59,0-2.9,0.52-3.93,1.57c-1.03,1.05-1.54,2.34-1.54,3.86c0,1.53,0.51,2.82,1.54,3.86
	c1.02,1.05,2.31,1.57,3.85,1.57C25.55,89.67,26.37,89.53,27.03,89.24L27.03,89.24z M34.54,89.49v-3.36h1.79l2.28,3.36h2.7
	l-2.56-3.75c1.5-0.56,2.25-1.64,2.25-3.25c0-1.02-0.3-1.83-0.9-2.43c-0.71-0.71-1.73-1.07-3.06-1.07h-4.8v10.5H34.54L34.54,89.49z
	 M34.54,81.08h2.3c0.57,0,1.01,0.13,1.33,0.38c0.32,0.26,0.48,0.63,0.48,1.12c0,0.46-0.16,0.83-0.46,1.1
	c-0.31,0.28-0.74,0.41-1.3,0.41h-2.34V81.08L34.54,81.08z M52.57,89.49v-2.05h-5.7v-2.2h4.95v-2.05h-4.95v-2.13h5.62v-2.06h-7.92
	v10.5H52.57L52.57,89.49z M57.58,89.49l0.96-2.36h4.44l0.96,2.36h2.42l-4.5-10.57h-2.13l-4.5,10.57H57.58L57.58,89.49z M60.76,81.69
	l1.4,3.4h-2.79L60.76,81.69L60.76,81.69z"/>
<path class="st3" d="M72.89,89.49v-8.37h3.19v-2.13h-8.7v2.13h3.19v8.37H72.89L72.89,89.49z M81.77,89.49v-10.5h-2.31v10.5H81.77
	L81.77,89.49z M96.58,84.24c0-1.52-0.53-2.8-1.58-3.86c-1.06-1.05-2.38-1.57-3.98-1.57c-1.6,0-2.93,0.53-4,1.58
	c-1.06,1.06-1.6,2.34-1.6,3.85c0,1.52,0.53,2.81,1.58,3.86c1.05,1.05,2.38,1.57,3.98,1.57c1.6,0,2.93-0.53,4-1.58
	C96.05,87.04,96.58,85.75,96.58,84.24L96.58,84.24L96.58,84.24z M87.84,84.24c0-0.93,0.29-1.71,0.89-2.35
	c0.59-0.63,1.34-0.95,2.27-0.95c0.92,0,1.68,0.32,2.28,0.96c0.6,0.64,0.9,1.42,0.9,2.34c0,0.93-0.3,1.71-0.89,2.35
	c-0.59,0.64-1.35,0.95-2.27,0.95c-0.92,0-1.68-0.32-2.28-0.96C88.14,85.94,87.84,85.16,87.84,84.24L87.84,84.24L87.84,84.24z
	 M102.42,89.49v-6.67l5.08,6.67h1.96v-10.5h-2.28v6.46l-4.92-6.46h-2.13v10.5H102.42L102.42,89.49z"/>
</svg>
