<?xml version="1.0" encoding="utf-8"?>
<!-- Generator: Adobe Illustrator 28.0.0, SVG Export Plug-In . SVG Version: 6.00 Build 0)  -->
<svg version="1.1" id="Layer_1" xmlns="http://www.w3.org/2000/svg" xmlns:xlink="http://www.w3.org/1999/xlink" x="0px" y="0px"
	 viewBox="0 0 127.5 127.5" style="enable-background:new 0 0 127.5 127.5;" xml:space="preserve">
<style type="text/css">
	.st0{clip-path:url(#SVGID_00000134971033851622807060000015834651850035228856_);fill:#222633;}
	.st1{clip-path:url(#SVGID_00000134971033851622807060000015834651850035228856_);fill:#F6F6F9;}
	.st2{fill:#222633;}
	.st3{fill:#F6F6F9;}
</style>
<g>
	<defs>
		<path id="SVGID_1_" d="M0,63.75c0-2.09,0.1-4.17,0.31-6.25c0.2-2.08,0.51-4.14,0.92-6.19c0.4-2.05,0.91-4.07,1.52-6.07
			c0.6-2,1.3-3.96,2.1-5.89c0.8-1.93,1.69-3.81,2.68-5.66c0.98-1.84,2.05-3.63,3.22-5.37c1.16-1.74,2.4-3.41,3.72-5.03
			c1.33-1.61,2.73-3.16,4.2-4.64c1.48-1.48,3.02-2.88,4.64-4.2c1.61-1.32,3.29-2.57,5.02-3.73c1.74-1.16,3.53-2.23,5.37-3.22
			c1.84-0.98,3.73-1.88,5.65-2.67c1.93-0.8,3.9-1.5,5.9-2.11c1.99-0.61,4.02-1.11,6.06-1.52c2.05-0.41,4.11-0.71,6.19-0.92
			C59.58,0.1,61.66,0,63.75,0S67.92,0.1,70,0.31c2.08,0.2,4.14,0.51,6.19,0.92c2.05,0.41,4.07,0.92,6.07,1.52
			c1.99,0.61,3.96,1.31,5.89,2.11c1.93,0.8,3.81,1.69,5.65,2.67c1.84,0.98,3.63,2.06,5.37,3.22c1.73,1.16,3.41,2.4,5.02,3.73
			c1.62,1.33,3.16,2.72,4.64,4.2c1.48,1.48,2.88,3.02,4.2,4.64c1.32,1.61,2.57,3.29,3.73,5.03c1.16,1.74,2.23,3.52,3.21,5.37
			c0.99,1.84,1.88,3.73,2.68,5.66c0.8,1.93,1.5,3.89,2.11,5.89c0.6,2,1.11,4.02,1.52,6.07c0.4,2.05,0.71,4.11,0.91,6.19
			c0.21,2.08,0.31,4.16,0.31,6.25c0,2.09-0.1,4.17-0.31,6.25c-0.2,2.08-0.51,4.14-0.91,6.19c-0.41,2.05-0.92,4.07-1.52,6.07
			c-0.61,2-1.31,3.96-2.11,5.89c-0.8,1.93-1.69,3.81-2.68,5.66c-0.98,1.84-2.05,3.63-3.21,5.37c-1.16,1.74-2.41,3.41-3.73,5.03
			c-1.32,1.61-2.72,3.16-4.2,4.64c-1.48,1.48-3.02,2.88-4.64,4.2c-1.61,1.32-3.29,2.57-5.02,3.73c-1.74,1.16-3.53,2.23-5.37,3.22
			c-1.84,0.98-3.72,1.88-5.65,2.67c-1.93,0.8-3.9,1.5-5.89,2.11c-2,0.61-4.02,1.11-6.07,1.52c-2.05,0.41-4.11,0.71-6.19,0.92
			c-2.08,0.2-4.16,0.31-6.25,0.31s-4.17-0.1-6.25-0.31c-2.08-0.2-4.14-0.51-6.19-0.92c-2.04-0.41-4.07-0.91-6.06-1.52
			c-2-0.61-3.97-1.31-5.9-2.11c-1.92-0.8-3.81-1.69-5.65-2.67c-1.84-0.98-3.63-2.06-5.37-3.22c-1.73-1.16-3.41-2.4-5.02-3.73
			c-1.62-1.32-3.16-2.73-4.64-4.2c-1.47-1.48-2.87-3.02-4.2-4.64c-1.32-1.61-2.56-3.29-3.72-5.03c-1.17-1.74-2.24-3.52-3.22-5.37
			c-0.99-1.84-1.88-3.73-2.68-5.66c-0.8-1.93-1.5-3.89-2.1-5.89c-0.61-2-1.12-4.02-1.52-6.07C0.82,74.14,0.51,72.08,0.31,70
			C0.1,67.92,0,65.84,0,63.75"/>
	</defs>
	<clipPath id="SVGID_00000018920451222412415030000000718146711990016678_">
		<use xlink:href="#SVGID_1_"  style="overflow:visible;"/>
	</clipPath>
	<path style="clip-path:url(#SVGID_00000018920451222412415030000000718146711990016678_);fill:#222633;" d="M127.5,63.75
		c0,1.04-0.02,2.09-0.08,3.13c-0.05,1.04-0.12,2.08-0.23,3.12c-0.1,1.04-0.23,2.07-0.38,3.1c-0.15,1.03-0.33,2.06-0.53,3.08
		c-0.21,1.02-0.44,2.04-0.69,3.05c-0.25,1.01-0.53,2.02-0.83,3.02c-0.31,1-0.63,1.99-0.99,2.97c-0.35,0.98-0.72,1.96-1.12,2.92
		s-0.82,1.92-1.27,2.86c-0.45,0.94-0.91,1.88-1.41,2.8c-0.49,0.92-1,1.83-1.54,2.72c-0.54,0.89-1.09,1.78-1.67,2.64
		c-0.58,0.87-1.18,1.72-1.8,2.56c-0.63,0.84-1.27,1.66-1.93,2.47c-0.66,0.81-1.34,1.6-2.04,2.37c-0.7,0.77-1.42,1.53-2.16,2.27
		c-0.74,0.74-1.49,1.46-2.27,2.16c-0.77,0.7-1.56,1.38-2.37,2.04c-0.8,0.66-1.62,1.3-2.46,1.92c-0.84,0.62-1.69,1.22-2.56,1.8
		c-0.87,0.58-1.75,1.14-2.64,1.67c-0.9,0.54-1.81,1.05-2.73,1.54c-0.92,0.49-1.85,0.96-2.79,1.41c-0.95,0.45-1.9,0.87-2.86,1.27
		c-0.97,0.4-1.94,0.78-2.92,1.13c-0.98,0.35-1.97,0.68-2.97,0.98s-2.01,0.58-3.02,0.83s-2.03,0.48-3.05,0.69
		c-1.02,0.2-2.05,0.38-3.08,0.53c-1.04,0.15-2.07,0.28-3.11,0.38c-1.04,0.1-2.08,0.18-3.12,0.23c-1.04,0.05-2.09,0.08-3.13,0.08
		s-2.08-0.03-3.13-0.08c-1.04-0.05-2.08-0.13-3.12-0.23c-1.04-0.1-2.07-0.23-3.1-0.38c-1.03-0.15-2.06-0.33-3.09-0.53
		c-1.02-0.2-2.04-0.43-3.05-0.69s-2.02-0.53-3.01-0.83c-1-0.3-1.99-0.63-2.98-0.98c-0.98-0.35-1.95-0.73-2.91-1.13
		c-0.97-0.4-1.92-0.82-2.87-1.27c-0.94-0.45-1.87-0.92-2.79-1.41c-0.92-0.49-1.83-1.01-2.72-1.54c-0.9-0.54-1.78-1.09-2.65-1.67
		c-0.86-0.58-1.72-1.18-2.55-1.8c-0.84-0.62-1.66-1.26-2.47-1.92c-0.81-0.66-1.6-1.34-2.37-2.04c-0.77-0.7-1.53-1.42-2.27-2.16
		c-0.73-0.74-1.45-1.49-2.15-2.27c-0.71-0.77-1.39-1.56-2.05-2.37c-0.66-0.81-1.3-1.63-1.92-2.47c-0.62-0.84-1.23-1.69-1.8-2.56
		c-0.58-0.87-1.14-1.75-1.68-2.64c-0.54-0.9-1.05-1.8-1.54-2.72c-0.49-0.92-0.96-1.85-1.41-2.8c-0.44-0.94-0.87-1.9-1.27-2.86
		c-0.4-0.96-0.77-1.94-1.12-2.92c-0.35-0.98-0.68-1.97-0.98-2.97c-0.31-1-0.58-2-0.84-3.02c-0.25-1.01-0.48-2.03-0.68-3.05
		c-0.21-1.02-0.39-2.05-0.54-3.08c-0.15-1.03-0.28-2.07-0.38-3.1c-0.1-1.04-0.18-2.08-0.23-3.12C0.03,65.84,0,64.79,0,63.75
		c0-1.04,0.03-2.09,0.08-3.13c0.05-1.04,0.13-2.08,0.23-3.12c0.1-1.04,0.23-2.07,0.38-3.1c0.15-1.03,0.33-2.06,0.54-3.08
		c0.2-1.02,0.43-2.04,0.68-3.05c0.26-1.01,0.53-2.02,0.84-3.02c0.3-1,0.63-1.99,0.98-2.97c0.35-0.98,0.72-1.96,1.12-2.92
		c0.4-0.96,0.83-1.92,1.27-2.86c0.45-0.94,0.92-1.88,1.41-2.8c0.49-0.92,1-1.83,1.54-2.72c0.54-0.9,1.1-1.78,1.68-2.64
		c0.57-0.87,1.18-1.72,1.8-2.56c0.62-0.84,1.26-1.66,1.92-2.47c0.66-0.81,1.34-1.6,2.05-2.37c0.7-0.77,1.42-1.53,2.15-2.27
		c0.74-0.74,1.5-1.46,2.27-2.16c0.77-0.7,1.56-1.38,2.37-2.04c0.81-0.66,1.63-1.3,2.47-1.92c0.83-0.62,1.69-1.22,2.55-1.8
		c0.87-0.58,1.75-1.14,2.65-1.67c0.89-0.54,1.8-1.05,2.72-1.54c0.92-0.49,1.85-0.96,2.79-1.41c0.95-0.45,1.9-0.87,2.87-1.27
		c0.96-0.4,1.93-0.77,2.91-1.13c0.99-0.35,1.98-0.68,2.98-0.98c0.99-0.3,2-0.58,3.01-0.83c1.01-0.25,2.03-0.48,3.05-0.69
		c1.03-0.2,2.06-0.38,3.09-0.53c1.03-0.15,2.06-0.28,3.1-0.38c1.04-0.1,2.08-0.18,3.12-0.23C61.67,0.03,62.71,0,63.75,0
		s2.09,0.03,3.13,0.08C67.92,0.13,68.96,0.2,70,0.31c1.04,0.1,2.07,0.23,3.11,0.38c1.03,0.15,2.06,0.33,3.08,0.53
		c1.02,0.2,2.04,0.43,3.05,0.69c1.01,0.25,2.02,0.53,3.02,0.83c1,0.3,1.99,0.63,2.97,0.98c0.98,0.35,1.95,0.73,2.92,1.13
		c0.96,0.4,1.91,0.82,2.86,1.27c0.94,0.45,1.87,0.92,2.79,1.41c0.92,0.49,1.83,1.01,2.73,1.54c0.89,0.54,1.77,1.1,2.64,1.67
		c0.87,0.58,1.72,1.18,2.56,1.8c0.84,0.62,1.66,1.26,2.46,1.92c0.81,0.66,1.6,1.34,2.37,2.04c0.78,0.7,1.53,1.42,2.27,2.16
		c0.74,0.74,1.46,1.49,2.16,2.27c0.7,0.77,1.38,1.56,2.04,2.37c0.66,0.81,1.3,1.63,1.93,2.47c0.62,0.84,1.22,1.69,1.8,2.56
		c0.58,0.87,1.13,1.75,1.67,2.64c0.54,0.89,1.05,1.8,1.54,2.72c0.5,0.92,0.96,1.85,1.41,2.8c0.45,0.94,0.87,1.9,1.27,2.86
		c0.4,0.96,0.77,1.94,1.12,2.92c0.36,0.98,0.68,1.97,0.99,2.97c0.3,1,0.58,2,0.83,3.02c0.25,1.01,0.48,2.03,0.69,3.05
		c0.2,1.02,0.38,2.05,0.53,3.08c0.15,1.03,0.28,2.07,0.38,3.1c0.11,1.04,0.18,2.08,0.23,3.12C127.48,61.66,127.5,62.71,127.5,63.75"
		/>
	<path style="clip-path:url(#SVGID_00000018920451222412415030000000718146711990016678_);fill:#F6F6F9;" d="M127.5,63.75h-6
		c0,0.94-0.02,1.89-0.07,2.83c-0.04,0.94-0.11,1.89-0.21,2.83c-0.09,0.94-0.21,1.88-0.34,2.81c-0.14,0.93-0.3,1.86-0.49,2.79
		c-0.18,0.93-0.39,1.85-0.62,2.77c-0.23,0.92-0.48,1.83-0.76,2.73c-0.27,0.9-0.57,1.8-0.88,2.69c-0.32,0.89-0.66,1.77-1.02,2.64
		c-0.37,0.87-0.75,1.74-1.15,2.59v0c-0.41,0.85-0.83,1.7-1.28,2.53c-0.44,0.83-0.91,1.66-1.4,2.47c-0.48,0.81-0.99,1.61-1.51,2.4
		c-0.53,0.79-1.07,1.56-1.63,2.32c-0.57,0.76-1.15,1.5-1.75,2.23c-0.6,0.73-1.21,1.45-1.85,2.15c-0.63,0.7-1.29,1.39-1.95,2.05
		c-0.67,0.67-1.36,1.32-2.06,1.95c-0.7,0.63-1.41,1.25-2.14,1.85c-0.73,0.6-1.48,1.18-2.24,1.74c-0.76,0.56-1.53,1.11-2.31,1.63
		c-0.79,0.52-1.59,1.03-2.4,1.52c-0.81,0.49-1.63,0.95-2.47,1.4c-0.83,0.45-1.67,0.87-2.53,1.28c-0.85,0.4-1.72,0.79-2.59,1.15
		c-0.87,0.36-1.75,0.7-2.64,1.02c-0.89,0.32-1.79,0.61-2.69,0.89c-0.91,0.27-1.82,0.53-2.74,0.76c-0.91,0.23-1.84,0.44-2.76,0.62
		c-0.93,0.18-1.86,0.35-2.8,0.48c-0.93,0.14-1.87,0.26-2.81,0.35c-0.94,0.09-1.88,0.16-2.83,0.21c-0.94,0.05-1.88,0.07-2.83,0.07
		c-0.94,0-1.89-0.02-2.83-0.07c-0.95-0.05-1.89-0.12-2.83-0.21c-0.94-0.09-1.88-0.21-2.81-0.35c-0.94-0.14-1.87-0.3-2.8-0.48
		c-0.92-0.18-1.84-0.39-2.76-0.62c-0.92-0.23-1.83-0.48-2.73-0.76c-0.91-0.27-1.8-0.57-2.69-0.89c-0.89-0.32-1.78-0.66-2.65-1.02
		c-0.87-0.36-1.74-0.74-2.59-1.15c-0.85-0.4-1.7-0.83-2.53-1.28c-0.84-0.45-1.66-0.91-2.47-1.4c-0.81-0.49-1.61-0.99-2.39-1.52
		c-0.79-0.53-1.56-1.07-2.32-1.63c-0.76-0.56-1.5-1.14-2.24-1.74c-0.73-0.6-1.44-1.22-2.14-1.85c-0.7-0.63-1.39-1.29-2.05-1.95
		c-0.67-0.67-1.32-1.35-1.96-2.05c-0.63-0.7-1.25-1.42-1.85-2.15c-0.6-0.73-1.18-1.47-1.74-2.23c-0.57-0.76-1.11-1.53-1.64-2.32
		c-0.52-0.78-1.03-1.58-1.51-2.39c-0.49-0.81-0.95-1.63-1.4-2.47c-0.45-0.83-0.87-1.68-1.27-2.53c-0.41-0.85-0.79-1.72-1.15-2.59
		c-0.36-0.87-0.7-1.75-1.02-2.64s-0.62-1.79-0.89-2.69c-0.28-0.91-0.53-1.82-0.76-2.73s-0.43-1.84-0.62-2.77
		c-0.18-0.93-0.35-1.86-0.48-2.79v0c-0.14-0.93-0.26-1.87-0.35-2.81c-0.09-0.94-0.16-1.88-0.21-2.83C6.02,65.64,6,64.7,6,63.75
		c0-0.95,0.02-1.89,0.07-2.83c0.05-0.94,0.12-1.89,0.21-2.83c0.09-0.94,0.21-1.88,0.35-2.81v0c0.13-0.93,0.3-1.86,0.48-2.79
		c0.19-0.93,0.39-1.85,0.62-2.77c0.23-0.92,0.48-1.83,0.76-2.73c0.27-0.9,0.57-1.8,0.89-2.69c0.32-0.89,0.66-1.77,1.02-2.65
		c0.36-0.87,0.74-1.74,1.15-2.59c0.4-0.85,0.82-1.7,1.27-2.53c0.45-0.83,0.91-1.65,1.4-2.47c0.48-0.81,0.99-1.61,1.51-2.39
		c0.53-0.79,1.07-1.56,1.64-2.32c0.56-0.76,1.14-1.5,1.74-2.24c0.6-0.73,1.22-1.45,1.85-2.15c0.64-0.7,1.29-1.38,1.96-2.05
		c0.66-0.67,1.35-1.32,2.05-1.96c0.7-0.63,1.41-1.25,2.15-1.85c0.73-0.6,1.47-1.18,2.23-1.74c0.76-0.56,1.53-1.11,2.32-1.63
		c0.78-0.52,1.58-1.03,2.39-1.52c0.81-0.49,1.63-0.95,2.47-1.4c0.83-0.45,1.68-0.87,2.53-1.27c0.85-0.4,1.72-0.79,2.59-1.15
		c0.87-0.36,1.76-0.7,2.65-1.02c0.89-0.32,1.78-0.62,2.69-0.89c0.9-0.27,1.81-0.53,2.73-0.76c0.92-0.23,1.84-0.44,2.76-0.62
		c0.93-0.18,1.86-0.35,2.8-0.48c0.93-0.14,1.87-0.26,2.81-0.35c0.94-0.09,1.88-0.16,2.83-0.21C61.86,6.02,62.81,6,63.75,6
		c0.95,0,1.89,0.02,2.83,0.07c0.95,0.05,1.89,0.12,2.83,0.21c0.94,0.09,1.88,0.21,2.81,0.35c0.94,0.14,1.87,0.3,2.8,0.48
		c0.92,0.18,1.85,0.39,2.76,0.62c0.92,0.23,1.83,0.48,2.74,0.76c0.9,0.28,1.8,0.57,2.69,0.89c0.89,0.32,1.77,0.66,2.64,1.02
		c0.87,0.36,1.74,0.74,2.59,1.15c0.86,0.4,1.7,0.83,2.53,1.27c0.84,0.45,1.66,0.91,2.47,1.4c0.81,0.49,1.61,0.99,2.4,1.52
		c0.78,0.53,1.55,1.07,2.31,1.63c0.76,0.56,1.51,1.15,2.24,1.74c0.73,0.6,1.44,1.22,2.14,1.85c0.7,0.63,1.39,1.29,2.06,1.95
		c0.66,0.67,1.32,1.35,1.95,2.05c0.64,0.7,1.25,1.42,1.85,2.15c0.6,0.73,1.18,1.48,1.75,2.24c0.56,0.76,1.1,1.53,1.63,2.32
		c0.52,0.79,1.03,1.59,1.51,2.4c0.49,0.81,0.96,1.63,1.4,2.47c0.45,0.83,0.87,1.68,1.28,2.53v0c0.4,0.85,0.78,1.72,1.14,2.59
		c0.37,0.88,0.71,1.76,1.03,2.65c0.31,0.89,0.61,1.79,0.88,2.69c0.28,0.9,0.53,1.82,0.76,2.73c0.23,0.92,0.44,1.84,0.62,2.77
		c0.19,0.93,0.35,1.86,0.49,2.79c0.13,0.94,0.25,1.87,0.34,2.81c0.1,0.94,0.17,1.88,0.21,2.83c0.05,0.95,0.07,1.89,0.07,2.84H127.5
		h6c0-1.14-0.03-2.28-0.08-3.42c-0.06-1.14-0.14-2.28-0.25-3.41c-0.12-1.14-0.26-2.27-0.42-3.4c-0.17-1.13-0.37-2.25-0.59-3.37
		c-0.22-1.12-0.47-2.23-0.75-3.34c-0.28-1.11-0.58-2.21-0.91-3.3c-0.33-1.09-0.69-2.17-1.08-3.25c-0.38-1.08-0.79-2.14-1.23-3.2
		c-0.43-1.05-0.9-2.1-1.39-3.13v0c-0.48-1.03-1-2.05-1.53-3.06c-0.54-1.01-1.11-2-1.69-2.98c-0.59-0.98-1.2-1.94-1.83-2.89
		c-0.64-0.95-1.3-1.88-1.98-2.8c-0.68-0.92-1.38-1.82-2.1-2.7c-0.73-0.88-1.47-1.75-2.24-2.59c-0.76-0.85-1.55-1.67-2.36-2.48
		c-0.8-0.81-1.63-1.59-2.48-2.36c-0.84-0.77-1.71-1.51-2.59-2.24s-1.78-1.43-2.7-2.11c-0.92-0.68-1.85-1.34-2.8-1.97
		c-0.95-0.63-1.91-1.24-2.89-1.83c-0.98-0.59-1.97-1.15-2.98-1.69C95.62,1.7,94.6,1.18,93.57,0.7c-1.03-0.49-2.07-0.95-3.13-1.39
		c-1.05-0.44-2.12-0.85-3.19-1.23C86.17-2.31,85.09-2.67,84-3c-1.09-0.33-2.19-0.64-3.3-0.91c-1.11-0.28-2.22-0.53-3.34-0.75
		c-1.12-0.22-2.25-0.42-3.37-0.59c-1.13-0.17-2.27-0.31-3.4-0.42c-1.14-0.11-2.28-0.2-3.42-0.25C66.03-5.97,64.89-6,63.75-6
		c-1.14,0-2.28,0.03-3.42,0.08c-1.14,0.06-2.28,0.14-3.42,0.25c-1.13,0.11-2.26,0.25-3.39,0.42c-1.13,0.17-2.26,0.36-3.38,0.59
		c-1.12,0.22-2.23,0.47-3.34,0.75C45.7-3.63,44.6-3.33,43.5-3c-1.09,0.33-2.17,0.69-3.25,1.07c-1.07,0.38-2.14,0.79-3.19,1.23
		c-1.06,0.44-2.1,0.9-3.13,1.39c-1.03,0.49-2.05,1-3.06,1.54c-1.01,0.54-2,1.1-2.98,1.69c-0.98,0.59-1.94,1.2-2.89,1.83
		c-0.95,0.63-1.88,1.29-2.8,1.97c-0.92,0.68-1.82,1.38-2.7,2.11s-1.74,1.47-2.59,2.24c-0.85,0.77-1.67,1.55-2.48,2.36
		c-0.81,0.81-1.59,1.63-2.36,2.48c-0.77,0.85-1.51,1.71-2.24,2.59c-0.72,0.88-1.42,1.78-2.1,2.7c-0.68,0.92-1.34,1.85-1.97,2.8
		c-0.64,0.95-1.25,1.91-1.84,2.89c-0.58,0.98-1.14,1.97-1.68,2.98C1.7,31.88,1.19,32.9,0.7,33.93C0.21,34.96-0.25,36-0.69,37.06
		c-0.44,1.05-0.85,2.12-1.23,3.2C-2.31,41.33-2.66,42.41-3,43.5c-0.33,1.09-0.63,2.19-0.91,3.3c-0.28,1.11-0.53,2.22-0.75,3.34
		c-0.22,1.12-0.42,2.24-0.58,3.37v0c-0.17,1.13-0.31,2.26-0.42,3.4c-0.11,1.14-0.2,2.27-0.26,3.41C-5.97,61.47-6,62.61-6,63.75
		c0,1.14,0.03,2.28,0.08,3.42c0.06,1.14,0.15,2.28,0.26,3.42c0.11,1.14,0.25,2.27,0.42,3.4v0c0.16,1.13,0.36,2.26,0.58,3.37
		c0.22,1.12,0.47,2.23,0.75,3.34C-3.63,81.8-3.33,82.9-3,84c0.34,1.09,0.69,2.18,1.08,3.25c0.38,1.07,0.79,2.14,1.23,3.19
		c0.44,1.05,0.9,2.1,1.39,3.13c0.49,1.03,1,2.05,1.54,3.06c0.54,1.01,1.1,2,1.68,2.98c0.59,0.98,1.2,1.94,1.84,2.89
		c0.63,0.95,1.29,1.88,1.97,2.8c0.68,0.92,1.38,1.82,2.1,2.7c0.73,0.88,1.47,1.75,2.24,2.59c0.77,0.85,1.55,1.67,2.36,2.48
		c0.81,0.81,1.63,1.59,2.48,2.36c0.85,0.77,1.71,1.51,2.59,2.24s1.78,1.43,2.7,2.11c0.92,0.68,1.85,1.34,2.8,1.97
		c0.95,0.63,1.91,1.24,2.89,1.83c0.98,0.59,1.97,1.15,2.98,1.69c1.01,0.54,2.03,1.05,3.06,1.54c1.03,0.49,2.07,0.95,3.13,1.39
		c1.05,0.44,2.12,0.85,3.19,1.23c1.08,0.39,2.16,0.74,3.25,1.07c1.1,0.33,2.2,0.64,3.3,0.91c1.11,0.28,2.22,0.53,3.34,0.75
		c1.12,0.22,2.25,0.42,3.38,0.58c1.13,0.17,2.26,0.31,3.39,0.42c1.14,0.11,2.28,0.2,3.42,0.25c1.14,0.06,2.28,0.08,3.42,0.08
		c1.14,0,2.28-0.03,3.42-0.08c1.14-0.06,2.28-0.14,3.42-0.25c1.13-0.11,2.27-0.25,3.4-0.42c1.13-0.17,2.25-0.36,3.37-0.58
		c1.12-0.22,2.23-0.47,3.34-0.75c1.11-0.28,2.21-0.58,3.3-0.91c1.09-0.33,2.17-0.69,3.25-1.07c1.07-0.38,2.14-0.79,3.19-1.23
		c1.06-0.44,2.1-0.9,3.13-1.39c1.03-0.49,2.05-1,3.06-1.54c1.01-0.54,2-1.1,2.98-1.69c0.98-0.59,1.94-1.2,2.89-1.83
		c0.95-0.64,1.88-1.29,2.8-1.97c0.92-0.68,1.82-1.38,2.7-2.11s1.75-1.47,2.59-2.24c0.85-0.77,1.68-1.55,2.48-2.36
		c0.81-0.81,1.6-1.63,2.36-2.48c0.77-0.85,1.51-1.71,2.24-2.59c0.72-0.88,1.42-1.78,2.1-2.7s1.34-1.85,1.98-2.8
		c0.63-0.95,1.24-1.91,1.83-2.89c0.58-0.98,1.15-1.97,1.69-2.98c0.53-1.01,1.05-2.03,1.53-3.06v0c0.49-1.03,0.96-2.08,1.39-3.13
		c0.44-1.05,0.85-2.12,1.23-3.19c0.39-1.08,0.75-2.16,1.08-3.25c0.33-1.09,0.63-2.19,0.91-3.3c0.28-1.11,0.53-2.22,0.75-3.34
		c0.22-1.12,0.42-2.24,0.59-3.37c0.16-1.13,0.3-2.26,0.42-3.4c0.11-1.14,0.19-2.28,0.25-3.42c0.05-1.14,0.08-2.28,0.08-3.42H127.5"
		/>
</g>
<path class="st2" d="M84.07,68.22H42.82V26.97h41.25V68.22 M55.88,39.86c-3.57,3.18-8.99,9.32-8.71,17.09
	c0.16,4.39,3.75,7.84,8.16,7.84h16.23c4.42,0,8-3.45,8.16-7.84c0.29-7.76-5.14-13.9-8.7-17.09H55.88 M57,30.41
	c-0.42,0-0.82,0.21-1.06,0.56c-0.24,0.35-0.29,0.79-0.14,1.19l1.92,5.13h11.46l1.92-5.13c0.15-0.4,0.09-0.84-0.15-1.19
	c-0.24-0.35-0.63-0.56-1.06-0.56h-3.23c-0.69-1.04-1.87-1.72-3.21-1.72c-1.34,0-2.52,0.68-3.21,1.72H57 M63.64,59.02
	c-2.49,0-4.63-1.69-5.62-4.12h-0.16c-0.71,0-1.29-0.58-1.29-1.29c0-0.57,0.37-1.05,0.89-1.22c-0.02-0.16-0.03-0.33-0.03-0.5
	c0-0.31,0.03-0.62,0.06-0.92c-0.53-0.16-0.92-0.64-0.92-1.23c0-0.71,0.58-1.29,1.29-1.29h0.35c1.05-2.19,3.1-3.69,5.43-3.69
	c2.59,0,3.69,1.09,4.58,1.96c0.5,0.51,0.51,1.32,0.01,1.83c-0.25,0.26-0.58,0.38-0.91,0.38c-0.33,0-0.66-0.12-0.91-0.37
	c-0.75-0.74-1.24-1.22-2.77-1.22c-0.9,0-1.71,0.43-2.35,1.11h1.73c0.71,0,1.29,0.58,1.29,1.29c0,0.71-0.58,1.29-1.29,1.29h-2.94
	c-0.04,0.28-0.07,0.57-0.07,0.86c0,0.15,0.03,0.28,0.03,0.43h2.98c0.71,0,1.29,0.58,1.29,1.29c0,0.71-0.58,1.29-1.29,1.29h-2.08
	c0.67,0.94,1.62,1.54,2.7,1.54c1.53,0,2.02-0.48,2.77-1.22c0.25-0.25,0.58-0.37,0.91-0.37c0.33,0,0.66,0.13,0.91,0.38
	c0.5,0.51,0.49,1.32-0.01,1.83C67.33,57.92,66.23,59.02,63.64,59.02"/>
<path class="st3" d="M71.56,64.78H55.33c-4.41,0-8-3.45-8.16-7.84c-0.28-7.76,5.14-13.9,8.71-17.09h15.14
	c3.56,3.18,8.99,9.32,8.7,17.09C79.56,61.34,75.98,64.78,71.56,64.78 M57.86,48.45c-0.71,0-1.29,0.58-1.29,1.29
	c0,0.58,0.39,1.07,0.92,1.23c-0.03,0.3-0.06,0.61-0.06,0.92c0,0.17,0.01,0.34,0.03,0.5c-0.52,0.17-0.89,0.65-0.89,1.22
	c0,0.71,0.58,1.29,1.29,1.29h0.16c0.99,2.42,3.13,4.12,5.62,4.12c2.59,0,3.69-1.09,4.58-1.96c0.5-0.51,0.51-1.32,0.01-1.83
	c-0.25-0.26-0.58-0.38-0.91-0.38c-0.33,0-0.66,0.12-0.91,0.37c-0.75,0.74-1.24,1.22-2.77,1.22c-1.08,0-2.03-0.6-2.7-1.54h2.08
	c0.71,0,1.29-0.58,1.29-1.29c0-0.71-0.58-1.29-1.29-1.29h-2.98c0-0.15-0.03-0.28-0.03-0.43c0-0.29,0.03-0.58,0.07-0.86h2.94
	c0.71,0,1.29-0.58,1.29-1.29c0-0.71-0.58-1.29-1.29-1.29h-1.73c0.64-0.68,1.45-1.11,2.35-1.11c1.53,0,2.02,0.48,2.77,1.22
	c0.25,0.25,0.58,0.37,0.91,0.37c0.33,0,0.66-0.13,0.91-0.38c0.5-0.51,0.49-1.32-0.01-1.83c-0.89-0.87-1.99-1.96-4.58-1.96
	c-2.33,0-4.38,1.5-5.43,3.69H57.86 M69.18,37.28H57.72l-1.92-5.13c-0.15-0.4-0.1-0.84,0.14-1.19c0.24-0.35,0.64-0.56,1.06-0.56h3.24
	c0.69-1.04,1.87-1.72,3.21-1.72c1.34,0,2.52,0.68,3.21,1.72h3.23c0.43,0,0.82,0.21,1.06,0.56c0.24,0.35,0.3,0.79,0.15,1.19
	L69.18,37.28"/>
<path class="st3" d="M26.09,91.4v-4.07h5.01v-2.1h-5.01v-2.23h5.69v-2.1h-7.99v10.5H26.09L26.09,91.4z M42.88,90.37
	c0.81-0.8,1.22-1.98,1.22-3.54V80.9h-2.31v6.02c0,0.82-0.2,1.45-0.59,1.88c-0.4,0.43-0.95,0.64-1.67,0.64
	c-0.72,0-1.28-0.22-1.67-0.67c-0.4-0.44-0.59-1.09-0.59-1.93V80.9h-2.31v6c0,1.52,0.4,2.68,1.2,3.47c0.8,0.8,1.91,1.19,3.34,1.19
	C40.94,91.57,42.07,91.17,42.88,90.37L42.88,90.37z M50.24,91.4v-6.67l5.08,6.67h1.96V80.9h-2.28v6.47l-4.92-6.47h-2.13v10.5H50.24
	L50.24,91.4z M65.4,91.4c1.63,0,2.97-0.5,4.01-1.5c1.04-1,1.57-2.25,1.57-3.75c0-1.51-0.52-2.76-1.56-3.76
	c-1.04-0.99-2.38-1.49-4.02-1.49h-4.09v10.5H65.4L65.4,91.4z M63.62,82.99h1.79c0.94,0,1.7,0.3,2.29,0.89
	c0.59,0.59,0.88,1.35,0.88,2.28c0,0.94-0.29,1.7-0.87,2.29c-0.58,0.58-1.35,0.88-2.3,0.88h-1.79V82.99L63.62,82.99z M76.95,91.4
	V80.9h-2.31v10.5H76.95L76.95,91.4z M83.36,91.4v-6.67l5.08,6.67h1.96V80.9h-2.28v6.47l-4.92-6.47h-2.13v10.5H83.36L83.36,91.4z"/>
<path class="st3" d="M103.96,89.92v-4.56H99.4v1.99h2.32v1.5c-0.59,0.42-1.32,0.63-2.17,0.63c-0.93,0-1.69-0.32-2.29-0.95
	c-0.6-0.63-0.89-1.42-0.89-2.39c0-0.91,0.29-1.69,0.88-2.33c0.58-0.65,1.3-0.97,2.14-0.97c0.57,0,1.06,0.09,1.47,0.26
	c0.41,0.17,0.83,0.44,1.28,0.81l1.46-1.76c-0.58-0.49-1.19-0.85-1.82-1.09c-0.63-0.23-1.4-0.35-2.31-0.35
	c-1.57,0-2.88,0.53-3.93,1.58c-1.05,1.06-1.57,2.34-1.57,3.85c0,1.58,0.51,2.88,1.54,3.9c1.02,1.02,2.35,1.53,3.98,1.53
	C101.16,91.58,102.65,91.03,103.96,89.92L103.96,89.92L103.96,89.92z"/>
</svg>
