<?xml version="1.0" encoding="utf-8"?>
<!-- Generator: Adobe Illustrator 28.0.0, SVG Export Plug-In . SVG Version: 6.00 Build 0)  -->
<svg version="1.1" id="Layer_1" xmlns="http://www.w3.org/2000/svg" xmlns:xlink="http://www.w3.org/1999/xlink" x="0px" y="0px"
	 viewBox="0 0 127.5 127.5" style="enable-background:new 0 0 127.5 127.5;" xml:space="preserve">
<style type="text/css">
	.st0{clip-path:url(#SVGID_00000129904948320162244930000003631421227854007190_);fill:#222633;}
	.st1{clip-path:url(#SVGID_00000129904948320162244930000003631421227854007190_);fill:#F6F6F9;}
	.st2{fill:#222633;}
	.st3{fill:#FFFFFF;}
	.st4{fill:#F6F6F9;}
</style>
<g>
	<defs>
		<path id="SVGID_1_" d="M0,63.75c0-2.09,0.1-4.17,0.31-6.25c0.21-2.08,0.51-4.14,0.92-6.19c0.41-2.05,0.91-4.07,1.52-6.07
			c0.61-2,1.31-3.96,2.11-5.89c0.8-1.93,1.69-3.81,2.68-5.65c0.98-1.84,2.06-3.63,3.22-5.37c1.16-1.74,2.4-3.41,3.73-5.03
			c1.32-1.61,2.73-3.16,4.2-4.64c1.48-1.48,3.02-2.88,4.64-4.2c1.62-1.32,3.29-2.57,5.03-3.73c1.74-1.16,3.52-2.23,5.36-3.22
			c1.84-0.98,3.73-1.88,5.66-2.68c1.93-0.8,3.89-1.5,5.89-2.11c2-0.61,4.02-1.11,6.07-1.52c2.05-0.41,4.11-0.71,6.19-0.92
			C59.58,0.1,61.66,0,63.75,0c2.09,0,4.17,0.1,6.25,0.31c2.08,0.2,4.14,0.51,6.19,0.92c2.05,0.41,4.07,0.91,6.07,1.52
			c2,0.61,3.96,1.31,5.89,2.11c1.93,0.8,3.81,1.69,5.65,2.68c1.84,0.98,3.63,2.06,5.37,3.22c1.74,1.16,3.41,2.4,5.03,3.73
			c1.61,1.32,3.16,2.73,4.63,4.2c1.48,1.48,2.88,3.02,4.2,4.64c1.32,1.61,2.57,3.29,3.73,5.03c1.16,1.74,2.23,3.52,3.22,5.37
			c0.99,1.84,1.88,3.73,2.67,5.65c0.8,1.93,1.5,3.89,2.11,5.89c0.61,2,1.11,4.02,1.52,6.07c0.41,2.05,0.71,4.11,0.92,6.19
			c0.2,2.08,0.31,4.16,0.31,6.25c0,2.09-0.1,4.17-0.31,6.25c-0.2,2.08-0.51,4.14-0.92,6.19c-0.41,2.05-0.91,4.07-1.52,6.07
			c-0.61,2-1.31,3.96-2.11,5.89c-0.8,1.93-1.69,3.82-2.67,5.66c-0.98,1.84-2.06,3.63-3.22,5.37c-1.16,1.74-2.4,3.41-3.73,5.02
			c-1.32,1.61-2.73,3.16-4.2,4.64c-1.48,1.48-3.02,2.88-4.63,4.2c-1.62,1.32-3.29,2.57-5.03,3.73c-1.74,1.16-3.52,2.23-5.36,3.22
			c-1.84,0.98-3.73,1.88-5.66,2.68c-1.93,0.8-3.89,1.5-5.89,2.11c-2,0.61-4.02,1.11-6.07,1.52c-2.05,0.41-4.11,0.71-6.19,0.92
			c-2.08,0.21-4.16,0.31-6.25,0.31c-2.09,0-4.17-0.1-6.25-0.31c-2.08-0.2-4.14-0.51-6.19-0.92c-2.05-0.41-4.07-0.91-6.07-1.52
			c-2-0.61-3.96-1.31-5.89-2.11c-1.93-0.8-3.81-1.69-5.66-2.68c-1.84-0.98-3.63-2.06-5.36-3.22c-1.74-1.16-3.41-2.4-5.03-3.73
			c-1.61-1.33-3.16-2.73-4.64-4.2c-1.48-1.48-2.88-3.02-4.2-4.64c-1.32-1.61-2.57-3.29-3.73-5.02c-1.16-1.74-2.23-3.52-3.22-5.37
			c-0.98-1.84-1.88-3.73-2.68-5.66c-0.8-1.93-1.5-3.89-2.11-5.89c-0.61-2-1.11-4.02-1.52-6.07C0.82,74.14,0.51,72.08,0.31,70
			C0.1,67.92,0,65.84,0,63.75"/>
	</defs>
	<clipPath id="SVGID_00000034795621067112998140000014616511643967638954_">
		<use xlink:href="#SVGID_1_"  style="overflow:visible;"/>
	</clipPath>
	<path style="clip-path:url(#SVGID_00000034795621067112998140000014616511643967638954_);fill:#222633;" d="M127.5,63.75
		c0,1.04-0.02,2.09-0.08,3.13c-0.05,1.04-0.13,2.08-0.23,3.12c-0.1,1.04-0.23,2.07-0.38,3.11c-0.15,1.03-0.33,2.06-0.53,3.08
		c-0.2,1.02-0.43,2.04-0.68,3.05c-0.25,1.01-0.53,2.02-0.84,3.02c-0.3,1-0.63,1.99-0.98,2.97c-0.35,0.98-0.73,1.96-1.13,2.92
		c-0.4,0.96-0.82,1.92-1.27,2.86c-0.45,0.94-0.91,1.88-1.41,2.8c-0.49,0.92-1.01,1.83-1.54,2.72c-0.54,0.9-1.09,1.78-1.67,2.64
		c-0.58,0.87-1.18,1.72-1.8,2.56c-0.62,0.84-1.26,1.66-1.92,2.47c-0.66,0.81-1.34,1.6-2.04,2.37c-0.7,0.77-1.42,1.53-2.16,2.27
		c-0.74,0.74-1.49,1.46-2.27,2.16c-0.77,0.7-1.56,1.38-2.37,2.04c-0.81,0.66-1.63,1.3-2.47,1.92c-0.84,0.62-1.69,1.22-2.56,1.8
		c-0.87,0.58-1.75,1.14-2.64,1.68c-0.9,0.54-1.8,1.05-2.72,1.54c-0.92,0.49-1.85,0.96-2.79,1.41c-0.94,0.45-1.9,0.87-2.86,1.27
		c-0.96,0.4-1.94,0.77-2.92,1.13c-0.98,0.35-1.97,0.68-2.97,0.98c-1,0.3-2,0.58-3.02,0.83c-1.01,0.25-2.03,0.48-3.05,0.69
		c-1.02,0.2-2.05,0.38-3.08,0.53c-1.03,0.15-2.07,0.28-3.1,0.38c-1.04,0.1-2.08,0.18-3.12,0.23c-1.04,0.05-2.09,0.08-3.13,0.08
		c-1.04,0-2.09-0.02-3.13-0.08c-1.04-0.05-2.08-0.13-3.12-0.23c-1.04-0.1-2.07-0.23-3.1-0.38c-1.03-0.15-2.06-0.33-3.08-0.53
		c-1.02-0.2-2.04-0.43-3.05-0.69c-1.01-0.25-2.02-0.53-3.01-0.83c-1-0.3-1.99-0.63-2.97-0.98c-0.98-0.35-1.96-0.73-2.92-1.13
		c-0.96-0.4-1.92-0.82-2.86-1.27c-0.94-0.45-1.87-0.92-2.8-1.41c-0.92-0.49-1.83-1.01-2.72-1.54c-0.89-0.54-1.78-1.09-2.64-1.68
		c-0.87-0.58-1.72-1.18-2.56-1.8c-0.84-0.62-1.66-1.26-2.47-1.92c-0.81-0.66-1.6-1.34-2.37-2.04c-0.77-0.7-1.53-1.42-2.27-2.16
		c-0.74-0.74-1.46-1.49-2.16-2.27c-0.7-0.77-1.38-1.56-2.04-2.37c-0.66-0.81-1.3-1.63-1.92-2.47c-0.62-0.84-1.22-1.69-1.8-2.56
		c-0.58-0.87-1.14-1.75-1.67-2.64c-0.54-0.89-1.05-1.8-1.54-2.72c-0.49-0.92-0.96-1.85-1.41-2.8c-0.45-0.94-0.87-1.9-1.27-2.86
		c-0.4-0.96-0.78-1.94-1.13-2.92c-0.35-0.98-0.68-1.97-0.98-2.97c-0.3-1-0.58-2-0.83-3.02c-0.25-1.01-0.48-2.03-0.68-3.05
		c-0.2-1.02-0.38-2.05-0.54-3.08C0.54,72.07,0.41,71.04,0.31,70c-0.1-1.04-0.18-2.08-0.23-3.12C0.03,65.84,0,64.79,0,63.75
		c0-1.04,0.03-2.09,0.08-3.13c0.05-1.04,0.13-2.08,0.23-3.12c0.1-1.04,0.23-2.07,0.38-3.11c0.15-1.03,0.33-2.06,0.54-3.08
		c0.2-1.02,0.43-2.04,0.68-3.05c0.25-1.01,0.53-2.02,0.83-3.01c0.3-1,0.63-1.99,0.98-2.97c0.35-0.98,0.73-1.96,1.13-2.92
		c0.4-0.96,0.82-1.92,1.27-2.86c0.45-0.94,0.91-1.88,1.41-2.79c0.49-0.92,1.01-1.83,1.54-2.72c0.54-0.89,1.09-1.78,1.67-2.64
		c0.58-0.87,1.18-1.72,1.8-2.56c0.62-0.84,1.26-1.66,1.92-2.47c0.66-0.81,1.34-1.6,2.04-2.37c0.7-0.77,1.42-1.53,2.16-2.27
		c0.74-0.74,1.49-1.46,2.27-2.16c0.77-0.7,1.56-1.38,2.37-2.04c0.81-0.66,1.63-1.3,2.47-1.92c0.84-0.62,1.69-1.22,2.56-1.8
		c0.87-0.58,1.75-1.14,2.64-1.67c0.9-0.54,1.8-1.05,2.72-1.54c0.92-0.49,1.85-0.96,2.8-1.41c0.94-0.45,1.9-0.87,2.86-1.27
		c0.96-0.4,1.94-0.77,2.92-1.13c0.98-0.35,1.97-0.68,2.97-0.98c1-0.3,2-0.58,3.01-0.83c1.01-0.25,2.03-0.48,3.05-0.69
		c1.02-0.2,2.05-0.38,3.08-0.54c1.03-0.15,2.07-0.28,3.1-0.38c1.04-0.1,2.08-0.18,3.12-0.23C61.66,0.03,62.71,0,63.75,0
		c1.04,0,2.09,0.03,3.13,0.08C67.92,0.13,68.96,0.2,70,0.31c1.04,0.1,2.07,0.23,3.1,0.38c1.03,0.15,2.06,0.33,3.08,0.54
		c1.02,0.2,2.04,0.43,3.05,0.69c1.01,0.25,2.02,0.53,3.02,0.83c1,0.3,1.99,0.63,2.97,0.98c0.98,0.35,1.96,0.73,2.92,1.13
		c0.96,0.4,1.92,0.82,2.86,1.27c0.94,0.45,1.87,0.91,2.79,1.41c0.92,0.49,1.83,1.01,2.72,1.54c0.9,0.54,1.78,1.09,2.64,1.67
		c0.87,0.58,1.72,1.18,2.56,1.8c0.84,0.62,1.66,1.26,2.47,1.92c0.81,0.66,1.6,1.34,2.37,2.04c0.77,0.7,1.53,1.42,2.27,2.16
		c0.74,0.74,1.46,1.49,2.16,2.27c0.7,0.77,1.38,1.56,2.04,2.37c0.66,0.81,1.3,1.63,1.92,2.47c0.62,0.84,1.22,1.69,1.8,2.56
		c0.58,0.87,1.14,1.75,1.67,2.64c0.54,0.9,1.05,1.8,1.54,2.72c0.49,0.92,0.96,1.85,1.41,2.79c0.45,0.94,0.87,1.9,1.27,2.86
		c0.4,0.96,0.77,1.94,1.13,2.92c0.35,0.98,0.68,1.97,0.98,2.97c0.3,1,0.58,2,0.84,3.01c0.25,1.01,0.48,2.03,0.68,3.05
		c0.2,1.02,0.38,2.05,0.53,3.08c0.15,1.03,0.28,2.07,0.38,3.11c0.1,1.04,0.18,2.08,0.23,3.12C127.48,61.66,127.5,62.71,127.5,63.75"
		/>
	<path style="clip-path:url(#SVGID_00000034795621067112998140000014616511643967638954_);fill:#F6F6F9;" d="M127.5,63.75h-6
		c0,0.95-0.02,1.89-0.07,2.83c-0.05,0.94-0.12,1.89-0.21,2.83c-0.09,0.94-0.21,1.88-0.35,2.81c-0.14,0.93-0.3,1.87-0.48,2.79
		c-0.18,0.93-0.39,1.85-0.62,2.77c-0.23,0.92-0.48,1.83-0.76,2.73c-0.27,0.9-0.57,1.8-0.89,2.69c-0.32,0.89-0.66,1.77-1.02,2.64
		c-0.36,0.87-0.74,1.74-1.15,2.59c-0.4,0.85-0.83,1.7-1.27,2.53c-0.45,0.83-0.91,1.66-1.4,2.47c-0.49,0.81-0.99,1.61-1.52,2.39
		c-0.53,0.79-1.07,1.56-1.63,2.32c-0.56,0.76-1.14,1.5-1.74,2.23c-0.6,0.73-1.22,1.45-1.85,2.15c-0.64,0.7-1.29,1.38-1.95,2.05
		c-0.67,0.67-1.35,1.32-2.05,1.95c-0.7,0.64-1.42,1.25-2.15,1.85c-0.73,0.6-1.48,1.18-2.23,1.74c-0.76,0.56-1.53,1.11-2.32,1.63
		c-0.79,0.52-1.58,1.03-2.4,1.52c-0.81,0.49-1.63,0.95-2.47,1.4c-0.83,0.45-1.68,0.87-2.53,1.28c-0.85,0.4-1.72,0.79-2.59,1.15
		c-0.87,0.36-1.76,0.7-2.64,1.02c-0.89,0.32-1.79,0.61-2.69,0.89c-0.9,0.27-1.82,0.53-2.73,0.76c-0.92,0.23-1.84,0.44-2.77,0.62
		c-0.93,0.18-1.86,0.35-2.79,0.49c-0.93,0.14-1.87,0.25-2.81,0.35c-0.94,0.09-1.88,0.16-2.83,0.21c-0.94,0.05-1.89,0.07-2.83,0.07
		c-0.94,0-1.89-0.02-2.83-0.07c-0.94-0.05-1.89-0.12-2.83-0.21c-0.94-0.09-1.88-0.21-2.81-0.35c-0.94-0.14-1.87-0.3-2.79-0.49
		c-0.93-0.18-1.85-0.39-2.77-0.62c-0.92-0.23-1.83-0.48-2.73-0.76c-0.9-0.27-1.8-0.57-2.69-0.89c-0.89-0.32-1.77-0.66-2.64-1.02
		c-0.87-0.36-1.74-0.74-2.59-1.15c-0.85-0.4-1.7-0.83-2.53-1.28c-0.83-0.45-1.66-0.91-2.47-1.4c-0.81-0.49-1.61-0.99-2.4-1.52
		c-0.79-0.53-1.56-1.07-2.32-1.63c-0.76-0.56-1.5-1.14-2.23-1.74c-0.73-0.6-1.45-1.22-2.15-1.85c-0.7-0.64-1.38-1.29-2.05-1.95
		c-0.67-0.67-1.32-1.35-1.96-2.05s-1.25-1.42-1.85-2.15c-0.6-0.73-1.18-1.48-1.74-2.23c-0.56-0.76-1.11-1.53-1.63-2.32
		c-0.53-0.79-1.03-1.58-1.52-2.39c-0.49-0.81-0.95-1.63-1.4-2.47c-0.45-0.83-0.87-1.68-1.27-2.53c-0.41-0.85-0.79-1.72-1.15-2.59
		c-0.36-0.87-0.7-1.75-1.02-2.64c-0.32-0.89-0.62-1.79-0.89-2.69c-0.27-0.91-0.53-1.82-0.76-2.73c-0.23-0.92-0.44-1.84-0.62-2.77
		c-0.18-0.93-0.35-1.86-0.49-2.79c-0.14-0.93-0.25-1.87-0.35-2.81c-0.09-0.94-0.16-1.88-0.21-2.83C6.02,65.64,6,64.7,6,63.75
		c0-0.95,0.02-1.89,0.07-2.83c0.05-0.94,0.12-1.89,0.21-2.83c0.09-0.94,0.21-1.88,0.35-2.81c0.14-0.94,0.3-1.87,0.48-2.79
		c0.18-0.93,0.39-1.85,0.62-2.77c0.23-0.92,0.48-1.83,0.76-2.73c0.27-0.9,0.57-1.8,0.89-2.69c0.32-0.89,0.66-1.77,1.02-2.65
		c0.36-0.87,0.74-1.74,1.15-2.59c0.4-0.85,0.83-1.7,1.27-2.53c0.44-0.83,0.91-1.66,1.4-2.47c0.49-0.81,0.99-1.61,1.52-2.4
		c0.52-0.79,1.07-1.56,1.63-2.32c0.56-0.76,1.14-1.5,1.74-2.24c0.6-0.73,1.22-1.45,1.85-2.15c0.64-0.7,1.29-1.38,1.96-2.05
		c0.67-0.67,1.35-1.32,2.05-1.95c0.7-0.63,1.41-1.25,2.15-1.85c0.73-0.6,1.48-1.18,2.23-1.74c0.76-0.56,1.53-1.11,2.32-1.63
		c0.79-0.52,1.58-1.03,2.4-1.52c0.81-0.49,1.63-0.95,2.47-1.4c0.83-0.45,1.68-0.87,2.53-1.27c0.85-0.4,1.72-0.79,2.59-1.15
		c0.87-0.36,1.76-0.7,2.64-1.02c0.89-0.32,1.79-0.62,2.69-0.89c0.91-0.28,1.82-0.53,2.73-0.76c0.92-0.23,1.84-0.44,2.77-0.62
		c0.93-0.18,1.86-0.35,2.79-0.48c0.93-0.14,1.87-0.25,2.81-0.35c0.94-0.09,1.88-0.16,2.83-0.21C61.86,6.02,62.81,6,63.75,6
		c0.95,0,1.89,0.02,2.83,0.07c0.94,0.05,1.89,0.12,2.83,0.21c0.94,0.09,1.88,0.21,2.81,0.35c0.94,0.14,1.87,0.3,2.79,0.48
		c0.93,0.18,1.85,0.39,2.77,0.62c0.92,0.23,1.83,0.48,2.73,0.76c0.9,0.27,1.8,0.57,2.69,0.89c0.89,0.32,1.77,0.66,2.64,1.02
		c0.87,0.36,1.74,0.74,2.59,1.15c0.85,0.4,1.7,0.83,2.53,1.28c0.83,0.44,1.66,0.91,2.47,1.4c0.81,0.49,1.61,0.99,2.39,1.52
		c0.79,0.53,1.56,1.07,2.32,1.63c0.76,0.56,1.5,1.14,2.24,1.74c0.73,0.6,1.45,1.22,2.15,1.85c0.7,0.64,1.38,1.29,2.05,1.95
		c0.67,0.67,1.32,1.35,1.95,2.05c0.63,0.7,1.25,1.42,1.85,2.15c0.6,0.73,1.18,1.48,1.74,2.24c0.56,0.76,1.11,1.53,1.63,2.32
		c0.52,0.79,1.03,1.58,1.52,2.4s0.95,1.63,1.4,2.47c0.45,0.83,0.87,1.68,1.27,2.53c0.41,0.86,0.79,1.72,1.15,2.59
		c0.36,0.87,0.7,1.76,1.02,2.65c0.32,0.89,0.61,1.79,0.89,2.69c0.27,0.9,0.53,1.81,0.76,2.73c0.23,0.92,0.44,1.84,0.62,2.77
		c0.18,0.93,0.35,1.86,0.48,2.79c0.14,0.93,0.25,1.87,0.35,2.81c0.09,0.94,0.16,1.88,0.21,2.83c0.05,0.94,0.07,1.89,0.07,2.83H127.5
		h6c0-1.14-0.03-2.28-0.08-3.42c-0.06-1.14-0.14-2.28-0.25-3.42c-0.11-1.14-0.25-2.27-0.42-3.4v0c-0.17-1.13-0.36-2.25-0.58-3.37
		c-0.22-1.12-0.47-2.23-0.75-3.34c-0.28-1.11-0.58-2.21-0.91-3.3c-0.33-1.09-0.69-2.18-1.07-3.25c-0.39-1.07-0.8-2.14-1.23-3.19
		c-0.44-1.06-0.9-2.1-1.39-3.13c-0.49-1.03-1-2.05-1.54-3.06c-0.54-1.01-1.1-2-1.69-2.98c-0.59-0.98-1.2-1.94-1.83-2.89
		c-0.63-0.95-1.29-1.88-1.97-2.8c-0.68-0.92-1.38-1.82-2.11-2.7c-0.72-0.88-1.47-1.75-2.24-2.59c-0.77-0.85-1.55-1.67-2.36-2.48
		c-0.81-0.81-1.63-1.59-2.48-2.36c-0.85-0.77-1.71-1.51-2.59-2.24c-0.88-0.72-1.78-1.43-2.7-2.11c-0.92-0.68-1.85-1.34-2.8-1.97
		c-0.95-0.63-1.91-1.24-2.89-1.83c-0.98-0.59-1.97-1.15-2.98-1.69C95.62,1.7,94.6,1.18,93.57,0.7c-1.03-0.49-2.08-0.95-3.13-1.39
		c-1.05-0.44-2.12-0.85-3.19-1.23C86.17-2.31,85.09-2.67,84-3c-1.09-0.33-2.19-0.64-3.3-0.91c-1.11-0.28-2.22-0.53-3.34-0.75
		c-1.12-0.22-2.24-0.42-3.37-0.58c-1.13-0.17-2.26-0.31-3.4-0.42c-1.14-0.11-2.27-0.2-3.41-0.25C66.03-5.97,64.89-6,63.75-6
		c-1.14,0-2.28,0.03-3.42,0.08c-1.14,0.06-2.28,0.14-3.41,0.25s-2.27,0.25-3.4,0.42c-1.13,0.17-2.25,0.36-3.37,0.58
		c-1.12,0.22-2.23,0.47-3.34,0.75C45.7-3.63,44.6-3.33,43.5-3c-1.09,0.33-2.18,0.69-3.25,1.07c-1.08,0.38-2.14,0.79-3.19,1.23
		c-1.05,0.44-2.1,0.9-3.13,1.39c-1.03,0.49-2.05,1-3.06,1.54c-1.01,0.54-2,1.1-2.98,1.69c-0.98,0.59-1.94,1.2-2.89,1.83
		c-0.95,0.63-1.88,1.29-2.8,1.97c-0.92,0.68-1.82,1.38-2.7,2.11c-0.88,0.72-1.75,1.47-2.59,2.24c-0.85,0.77-1.67,1.55-2.48,2.36
		c-0.81,0.81-1.59,1.63-2.36,2.48c-0.77,0.85-1.51,1.71-2.24,2.59c-0.72,0.88-1.43,1.78-2.11,2.7c-0.68,0.92-1.34,1.85-1.97,2.8
		c-0.63,0.95-1.24,1.91-1.83,2.89c-0.59,0.98-1.15,1.97-1.69,2.98C1.7,31.88,1.19,32.9,0.7,33.93C0.21,34.96-0.25,36-0.69,37.06
		c-0.44,1.05-0.85,2.12-1.23,3.19C-2.31,41.33-2.66,42.41-3,43.5c-0.33,1.09-0.64,2.19-0.91,3.3c-0.28,1.11-0.53,2.22-0.75,3.34
		c-0.22,1.12-0.42,2.24-0.58,3.37s-0.31,2.26-0.42,3.4c-0.11,1.13-0.2,2.27-0.25,3.41C-5.97,61.47-6,62.61-6,63.75
		c0,1.14,0.03,2.28,0.08,3.42c0.06,1.14,0.14,2.28,0.25,3.41c0.11,1.14,0.25,2.27,0.42,3.4c0.17,1.13,0.36,2.25,0.58,3.37
		c0.22,1.12,0.47,2.23,0.75,3.34C-3.63,81.81-3.33,82.9-3,84c0.33,1.09,0.69,2.18,1.07,3.25c0.39,1.07,0.8,2.14,1.23,3.19
		c0.44,1.05,0.9,2.1,1.39,3.13c0.49,1.03,1,2.05,1.54,3.06c0.54,1.01,1.1,2,1.69,2.98c0.59,0.98,1.2,1.94,1.83,2.89
		c0.63,0.95,1.29,1.88,1.97,2.8c0.68,0.92,1.38,1.82,2.11,2.7c0.72,0.88,1.47,1.75,2.24,2.59c0.77,0.85,1.55,1.67,2.36,2.48
		s1.63,1.59,2.48,2.36c0.85,0.77,1.71,1.51,2.59,2.24c0.88,0.72,1.78,1.43,2.7,2.11c0.92,0.68,1.85,1.34,2.8,1.97
		c0.95,0.63,1.91,1.24,2.89,1.83c0.98,0.59,1.97,1.15,2.98,1.69c1.01,0.54,2.03,1.05,3.06,1.54c1.03,0.49,2.08,0.95,3.13,1.39
		c1.05,0.44,2.12,0.85,3.19,1.23c1.07,0.38,2.16,0.74,3.25,1.07c1.09,0.33,2.19,0.64,3.3,0.91c1.11,0.28,2.22,0.53,3.34,0.75
		c1.12,0.22,2.24,0.42,3.37,0.58c1.13,0.17,2.26,0.31,3.4,0.42s2.28,0.2,3.41,0.25c1.14,0.06,2.28,0.08,3.42,0.08
		c1.14,0,2.28-0.03,3.42-0.08c1.14-0.06,2.28-0.14,3.41-0.25c1.14-0.11,2.27-0.25,3.4-0.42c1.13-0.17,2.25-0.36,3.37-0.58
		c1.12-0.22,2.23-0.47,3.34-0.75c1.11-0.28,2.21-0.58,3.3-0.91c1.09-0.33,2.18-0.69,3.25-1.07c1.07-0.39,2.14-0.8,3.19-1.23
		c1.05-0.44,2.1-0.9,3.13-1.39c1.03-0.49,2.05-1,3.06-1.54c1.01-0.54,2-1.1,2.98-1.69c0.98-0.59,1.94-1.2,2.89-1.83
		c0.95-0.63,1.88-1.29,2.8-1.97c0.92-0.68,1.82-1.38,2.7-2.11c0.88-0.72,1.75-1.47,2.59-2.24c0.85-0.77,1.67-1.55,2.48-2.36
		s1.59-1.63,2.36-2.48c0.77-0.85,1.51-1.71,2.24-2.59c0.72-0.88,1.43-1.78,2.11-2.7c0.68-0.92,1.34-1.85,1.97-2.8
		c0.63-0.95,1.25-1.91,1.83-2.89c0.59-0.98,1.15-1.97,1.69-2.98c0.54-1.01,1.05-2.03,1.54-3.06c0.49-1.03,0.95-2.08,1.39-3.13
		c0.44-1.05,0.85-2.12,1.23-3.19c0.38-1.08,0.74-2.16,1.07-3.25c0.33-1.09,0.63-2.19,0.91-3.3c0.28-1.11,0.53-2.22,0.75-3.34
		c0.22-1.12,0.42-2.24,0.58-3.37c0.17-1.13,0.31-2.26,0.42-3.4c0.11-1.13,0.2-2.27,0.25-3.41c0.06-1.14,0.08-2.28,0.08-3.42H127.5"
		/>
</g>
<path class="st2" d="M84.77,67.61H43.52V26.36h41.25V67.61 M48.7,46.11c-0.22,0-0.44,0.04-0.65,0.13c-0.22,0.09-0.42,0.23-0.59,0.4
	c-0.17,0.17-0.29,0.38-0.38,0.6c-0.08,0.23-0.12,0.46-0.1,0.71c0.5,9.03,8.01,16.22,17.16,16.22c4.68,0,8.93-1.88,12.03-4.92v0.63
	c0,0.23,0.04,0.45,0.12,0.67c0.09,0.21,0.21,0.4,0.37,0.57c0.16,0.16,0.35,0.29,0.56,0.38c0.21,0.09,0.43,0.13,0.66,0.13
	s0.45-0.04,0.66-0.13c0.21-0.09,0.4-0.21,0.56-0.38c0.16-0.16,0.28-0.35,0.37-0.57c0.09-0.21,0.13-0.44,0.12-0.67v-5.16
	c0-0.22-0.04-0.43-0.12-0.64c-0.08-0.21-0.2-0.39-0.35-0.55c-0.15-0.16-0.33-0.29-0.53-0.38c-0.2-0.09-0.41-0.14-0.64-0.15
	c-0.13-0.03-0.26-0.05-0.39-0.05c-0.13,0-0.25,0.01-0.38,0.04h-4.45c-0.01,0-0.02,0-0.03,0c-0.22,0-0.43,0.04-0.64,0.12
	c-0.21,0.09-0.4,0.21-0.57,0.37c-0.16,0.16-0.29,0.35-0.38,0.56c-0.09,0.21-0.13,0.43-0.13,0.66c0,0.23,0.04,0.45,0.13,0.66
	c0.09,0.21,0.21,0.4,0.38,0.56c0.16,0.16,0.35,0.29,0.57,0.37c0.21,0.08,0.42,0.12,0.64,0.12c0.01,0,0.02,0,0.03,0h1.38
	c-2.5,2.64-6.04,4.3-9.98,4.3c-7.35,0-13.33-5.73-13.73-12.97c-0.01-0.22-0.06-0.42-0.15-0.62c-0.09-0.2-0.21-0.37-0.36-0.53
	c-0.15-0.15-0.33-0.27-0.53-0.36c-0.2-0.09-0.41-0.13-0.63-0.14C48.73,46.11,48.71,46.11,48.7,46.11 M59.95,50.41
	c-0.15,0-0.29,0.02-0.43,0.06c-0.22,0.06-0.42,0.16-0.61,0.29c-0.18,0.14-0.33,0.31-0.45,0.51c-0.11,0.2-0.19,0.41-0.22,0.64
	c-0.03,0.23-0.01,0.45,0.05,0.67c0.5,1.94,2.14,3.36,4.13,3.71v0.15c0,0.23,0.04,0.45,0.12,0.66c0.09,0.21,0.21,0.4,0.37,0.57
	c0.16,0.16,0.35,0.29,0.56,0.38c0.21,0.09,0.43,0.13,0.66,0.13c0.23,0,0.45-0.05,0.66-0.13c0.21-0.09,0.4-0.22,0.56-0.38
	c0.16-0.16,0.29-0.35,0.37-0.57c0.09-0.21,0.13-0.43,0.12-0.66v-0.31c2.45-0.68,4.3-2.84,4.3-5.49c0-3.18-2.62-5.8-5.8-5.8H63.5
	c-1.09,0-1.93-0.85-1.93-1.93c0-1.09,0.84-1.93,1.93-1.93h1.08c0.81,0,1.46,0.54,1.66,1.27c0.06,0.22,0.16,0.42,0.3,0.61
	c0.14,0.18,0.31,0.33,0.5,0.45c0.2,0.12,0.41,0.19,0.64,0.22c0.08,0.01,0.15,0.02,0.23,0.02c0.15,0,0.3-0.02,0.45-0.06
	c0.22-0.06,0.42-0.16,0.6-0.3c0.18-0.14,0.33-0.31,0.44-0.51c0.11-0.2,0.18-0.41,0.21-0.64c0.03-0.23,0.01-0.45-0.05-0.67
	c-0.48-1.78-1.91-3.12-3.69-3.59v-0.22c0-0.23-0.04-0.46-0.13-0.67c-0.09-0.21-0.21-0.4-0.38-0.57c-0.17-0.16-0.35-0.29-0.57-0.38
	c-0.21-0.08-0.42-0.13-0.65-0.13c-0.01,0-0.02,0-0.03,0c-0.23,0-0.45,0.05-0.66,0.14c-0.21,0.09-0.39,0.22-0.55,0.38
	c-0.16,0.16-0.28,0.35-0.36,0.56c-0.08,0.21-0.12,0.43-0.12,0.66v0.22c-2.42,0.52-4.3,2.59-4.3,5.15c0,2.94,2.42,5.37,5.37,5.37
	h0.86c1.32,0,2.36,1.04,2.36,2.36c0,1.33-1.04,2.36-2.36,2.36h-1.08c-0.82,0-1.47-0.55-1.66-1.28c-0.05-0.22-0.15-0.43-0.29-0.61
	c-0.14-0.18-0.3-0.33-0.5-0.45c-0.2-0.12-0.41-0.19-0.64-0.22C60.11,50.42,60.03,50.41,59.95,50.41 M64.14,33.23
	c7.35,0,13.33,5.73,13.73,12.97c0.01,0.23,0.06,0.45,0.16,0.65c0.1,0.21,0.23,0.39,0.4,0.54c0.17,0.15,0.36,0.27,0.58,0.35
	c0.19,0.07,0.38,0.1,0.57,0.1c0.03,0,0.06,0,0.1,0c0.23-0.01,0.45-0.07,0.65-0.17c0.21-0.1,0.39-0.24,0.54-0.41
	c0.15-0.17,0.27-0.37,0.34-0.58c0.07-0.22,0.1-0.44,0.09-0.67c-0.5-9.03-8.01-16.22-17.16-16.22c-4.68,0-8.93,1.88-12.03,4.92v-0.63
	c0-0.23-0.04-0.46-0.13-0.67c-0.09-0.21-0.21-0.4-0.38-0.57c-0.16-0.16-0.35-0.29-0.57-0.38c-0.21-0.08-0.42-0.13-0.64-0.13
	c-0.01,0-0.02,0-0.03,0c-0.23,0-0.45,0.05-0.65,0.14c-0.21,0.09-0.39,0.22-0.55,0.38c-0.16,0.16-0.28,0.35-0.36,0.56
	c-0.08,0.21-0.13,0.43-0.12,0.66v5.16c0,0.22,0.04,0.44,0.13,0.64c0.08,0.21,0.2,0.39,0.35,0.55c0.15,0.16,0.33,0.29,0.53,0.38
	c0.2,0.09,0.42,0.14,0.64,0.15c0.13,0.03,0.26,0.05,0.39,0.05c0.13,0,0.25-0.01,0.38-0.04h4.45c0.01,0,0.02,0,0.02,0
	c0.22,0,0.43-0.04,0.64-0.12c0.21-0.09,0.4-0.21,0.57-0.37c0.16-0.16,0.29-0.35,0.38-0.56c0.09-0.21,0.13-0.43,0.13-0.66
	s-0.04-0.45-0.13-0.66c-0.09-0.21-0.22-0.4-0.38-0.56c-0.16-0.16-0.35-0.28-0.57-0.37c-0.21-0.08-0.42-0.12-0.64-0.12
	c-0.01,0-0.01,0-0.02,0h-1.38C56.67,34.89,60.2,33.23,64.14,33.23"/>
<path class="st3" d="M64.14,64.17c-9.15,0-16.66-7.19-17.16-16.22c-0.02-0.24,0.02-0.48,0.1-0.71c0.08-0.23,0.21-0.43,0.38-0.6
	c0.17-0.18,0.36-0.31,0.59-0.4c0.21-0.08,0.42-0.13,0.65-0.13c0.02,0,0.03,0,0.05,0c0.22,0.01,0.43,0.05,0.63,0.14
	c0.2,0.08,0.38,0.2,0.53,0.36c0.15,0.15,0.28,0.33,0.36,0.53c0.09,0.2,0.14,0.41,0.15,0.62c0.4,7.24,6.37,12.97,13.73,12.97
	c3.94,0,7.47-1.65,9.98-4.3h-1.38c-0.01,0-0.02,0-0.03,0c-0.22,0-0.43-0.04-0.64-0.12c-0.21-0.09-0.4-0.21-0.57-0.37
	c-0.16-0.16-0.29-0.35-0.38-0.56c-0.09-0.21-0.13-0.43-0.13-0.66c0-0.23,0.04-0.45,0.13-0.66c0.09-0.21,0.21-0.4,0.38-0.56
	c0.16-0.16,0.35-0.29,0.57-0.37c0.21-0.08,0.42-0.12,0.64-0.12c0.01,0,0.02,0,0.03,0h4.45c0.13-0.03,0.25-0.04,0.38-0.04
	c0.13,0,0.26,0.01,0.39,0.05c0.22,0.01,0.43,0.06,0.64,0.15c0.2,0.09,0.38,0.22,0.53,0.38c0.15,0.16,0.27,0.34,0.35,0.55
	c0.08,0.21,0.12,0.42,0.12,0.64v5.16c0,0.23-0.04,0.45-0.12,0.67c-0.09,0.21-0.21,0.4-0.37,0.57c-0.16,0.16-0.35,0.29-0.56,0.38
	c-0.21,0.09-0.43,0.13-0.66,0.13s-0.45-0.04-0.66-0.13c-0.21-0.09-0.4-0.21-0.56-0.38c-0.16-0.16-0.29-0.35-0.37-0.57
	c-0.09-0.21-0.13-0.44-0.12-0.67v-0.63C73.07,62.29,68.82,64.17,64.14,64.17 M64.14,58.18c-0.23,0-0.45-0.05-0.66-0.13
	c-0.21-0.09-0.4-0.22-0.56-0.38c-0.16-0.16-0.29-0.35-0.37-0.57c-0.09-0.21-0.13-0.43-0.12-0.66v-0.15
	c-1.99-0.35-3.62-1.77-4.13-3.71c-0.06-0.22-0.08-0.45-0.05-0.67c0.03-0.23,0.1-0.44,0.22-0.64c0.11-0.2,0.26-0.37,0.45-0.51
	c0.18-0.14,0.38-0.24,0.61-0.29c0.14-0.04,0.29-0.06,0.43-0.06c0.08,0,0.16,0.01,0.24,0.02c0.23,0.03,0.44,0.11,0.64,0.22
	c0.2,0.12,0.36,0.27,0.5,0.45c0.14,0.18,0.23,0.39,0.29,0.61c0.19,0.73,0.85,1.28,1.66,1.28h1.08c1.32,0,2.36-1.04,2.36-2.36
	c0-1.32-1.04-2.36-2.36-2.36H63.5c-2.95,0-5.37-2.43-5.37-5.37c0-2.57,1.88-4.63,4.3-5.15v-0.22c0-0.23,0.04-0.45,0.12-0.66
	c0.08-0.21,0.21-0.4,0.36-0.56c0.16-0.16,0.34-0.29,0.55-0.38c0.21-0.09,0.43-0.14,0.66-0.14c0.01,0,0.02,0,0.03,0
	c0.22,0,0.44,0.04,0.65,0.13c0.22,0.09,0.4,0.21,0.57,0.38c0.16,0.16,0.29,0.35,0.38,0.57c0.09,0.21,0.13,0.44,0.13,0.67v0.22
	c1.78,0.47,3.21,1.81,3.69,3.59c0.06,0.22,0.08,0.44,0.05,0.67c-0.03,0.23-0.1,0.44-0.21,0.64c-0.11,0.2-0.26,0.37-0.44,0.51
	c-0.18,0.14-0.38,0.24-0.6,0.3c-0.15,0.04-0.3,0.06-0.45,0.06c-0.08,0-0.15,0-0.23-0.02c-0.23-0.03-0.44-0.1-0.64-0.22
	c-0.2-0.12-0.37-0.26-0.5-0.45c-0.14-0.18-0.24-0.39-0.3-0.61c-0.2-0.73-0.85-1.27-1.66-1.27H63.5c-1.09,0-1.93,0.85-1.93,1.93
	c0,1.09,0.84,1.93,1.93,1.93h0.86c3.18,0,5.8,2.62,5.8,5.8c0,2.65-1.85,4.81-4.3,5.49v0.31c0,0.23-0.04,0.45-0.12,0.66
	c-0.09,0.21-0.21,0.4-0.37,0.57c-0.16,0.16-0.35,0.29-0.56,0.38C64.6,58.13,64.37,58.18,64.14,58.18 M79.59,47.85
	c-0.2,0-0.39-0.03-0.57-0.1c-0.22-0.08-0.41-0.19-0.58-0.35c-0.17-0.15-0.3-0.33-0.4-0.54c-0.1-0.21-0.15-0.43-0.16-0.65
	c-0.4-7.24-6.38-12.97-13.73-12.97c-3.94,0-7.48,1.65-9.98,4.3h1.38c0.01,0,0.01,0,0.02,0c0.22,0,0.44,0.04,0.64,0.12
	c0.21,0.09,0.4,0.21,0.57,0.37c0.16,0.16,0.29,0.35,0.38,0.56c0.09,0.21,0.13,0.43,0.13,0.66s-0.04,0.45-0.13,0.66
	c-0.09,0.21-0.22,0.4-0.38,0.56c-0.16,0.16-0.35,0.29-0.57,0.37c-0.21,0.08-0.42,0.12-0.64,0.12c-0.01,0-0.02,0-0.02,0H51.1
	c-0.13,0.03-0.25,0.04-0.38,0.04c-0.13,0-0.26-0.02-0.39-0.05c-0.22-0.01-0.43-0.06-0.64-0.15c-0.2-0.09-0.38-0.22-0.53-0.38
	c-0.15-0.16-0.27-0.34-0.35-0.55c-0.08-0.2-0.13-0.42-0.13-0.64v-5.16c0-0.23,0.04-0.45,0.12-0.66c0.08-0.21,0.21-0.4,0.36-0.56
	c0.16-0.16,0.34-0.29,0.55-0.38c0.21-0.09,0.43-0.14,0.65-0.14c0.01,0,0.02,0,0.03,0c0.22,0,0.44,0.04,0.64,0.13
	c0.21,0.09,0.4,0.21,0.57,0.38c0.16,0.16,0.29,0.35,0.38,0.57c0.09,0.21,0.13,0.44,0.13,0.67v0.63c3.1-3.04,7.35-4.92,12.03-4.92
	c9.15,0,16.66,7.19,17.16,16.22c0.01,0.23-0.02,0.45-0.09,0.67c-0.07,0.22-0.19,0.41-0.34,0.58c-0.15,0.17-0.33,0.31-0.54,0.41
	c-0.21,0.1-0.42,0.16-0.65,0.17C79.65,47.85,79.62,47.85,79.59,47.85"/>
<path class="st4" d="M42.66,95.39v-4.03h2.14l2.74,4.03h3.24l-3.08-4.5c1.8-0.67,2.7-1.97,2.7-3.91c0-1.22-0.36-2.2-1.08-2.92
	c-0.85-0.85-2.08-1.28-3.67-1.28h-5.76v12.6H42.66L42.66,95.39z M42.66,85.29h2.75c0.68,0,1.22,0.15,1.6,0.46
	c0.38,0.31,0.58,0.75,0.58,1.34c0,0.55-0.19,0.99-0.56,1.32c-0.37,0.33-0.89,0.49-1.57,0.49h-2.81V85.29L42.66,85.29z M64.3,95.39
	v-2.47h-6.84v-2.65h5.94v-2.47h-5.94v-2.56h6.75v-2.47h-9.5v12.6H64.3L64.3,95.39z M71.34,95.39v-4.88h6.01v-2.52h-6.01v-2.68h6.82
	v-2.52h-9.59v12.6H71.34L71.34,95.39z M85.07,95.39v-12.6H82.3v12.6H85.07L85.07,95.39z"/>
</svg>
