<?xml version="1.0" encoding="utf-8"?>
<!-- Generator: Adobe Illustrator 28.0.0, SVG Export Plug-In . SVG Version: 6.00 Build 0)  -->
<svg version="1.1" id="Layer_1" xmlns="http://www.w3.org/2000/svg" xmlns:xlink="http://www.w3.org/1999/xlink" x="0px" y="0px"
	 viewBox="0 0 127.5 127.5" style="enable-background:new 0 0 127.5 127.5;" xml:space="preserve">
<style type="text/css">
	.st0{clip-path:url(#SVGID_00000033354073400071195540000018378987944119702951_);fill:#222633;}
	.st1{clip-path:url(#SVGID_00000033354073400071195540000018378987944119702951_);fill:#F6F6F9;}
	.st2{fill:#222633;}
	.st3{fill:#FFFFFF;}
	.st4{fill:#F6F6F9;}
</style>
<g>
	<defs>
		<path id="SVGID_1_" d="M0,63.75c0-2.09,0.11-4.17,0.31-6.25c0.21-2.08,0.51-4.14,0.92-6.19c0.41-2.05,0.91-4.07,1.52-6.07
			c0.61-2,1.31-3.96,2.11-5.89c0.8-1.93,1.69-3.81,2.67-5.65c0.99-1.84,2.06-3.63,3.22-5.37c1.16-1.74,2.4-3.41,3.72-5.02
			c1.33-1.61,2.73-3.16,4.21-4.64c1.47-1.48,3.02-2.88,4.63-4.2c1.62-1.32,3.29-2.57,5.03-3.73c1.73-1.16,3.52-2.23,5.36-3.22
			c1.84-0.98,3.73-1.88,5.66-2.68c1.93-0.8,3.89-1.5,5.89-2.11c2-0.61,4.02-1.11,6.07-1.52c2.04-0.41,4.11-0.71,6.19-0.92
			C59.58,0.1,61.67,0,63.75,0c2.09,0,4.18,0.1,6.25,0.31c2.08,0.2,4.14,0.51,6.19,0.92c2.05,0.41,4.07,0.91,6.07,1.52
			c2,0.61,3.96,1.31,5.89,2.11c1.93,0.8,3.81,1.69,5.66,2.68c1.84,0.98,3.63,2.06,5.36,3.22c1.74,1.16,3.41,2.4,5.03,3.73
			c1.61,1.33,3.16,2.73,4.63,4.2c1.48,1.48,2.88,3.02,4.2,4.64c1.33,1.61,2.57,3.29,3.73,5.02c1.16,1.74,2.23,3.52,3.22,5.37
			c0.98,1.84,1.87,3.73,2.67,5.65c0.8,1.93,1.5,3.89,2.11,5.89c0.61,2,1.11,4.02,1.52,6.07c0.41,2.05,0.71,4.11,0.92,6.19
			c0.2,2.08,0.3,4.16,0.3,6.25c0,2.09-0.1,4.17-0.3,6.25c-0.21,2.08-0.51,4.14-0.92,6.19c-0.41,2.05-0.91,4.07-1.52,6.07
			c-0.61,2-1.31,3.96-2.11,5.89c-0.8,1.93-1.69,3.81-2.67,5.66c-0.99,1.84-2.06,3.63-3.22,5.37c-1.16,1.74-2.4,3.41-3.73,5.02
			c-1.32,1.61-2.72,3.16-4.2,4.64c-1.47,1.48-3.02,2.88-4.63,4.2c-1.62,1.32-3.29,2.57-5.03,3.73c-1.73,1.16-3.52,2.23-5.36,3.22
			c-1.85,0.98-3.73,1.88-5.66,2.68c-1.93,0.8-3.89,1.5-5.89,2.11c-2,0.61-4.02,1.11-6.07,1.52c-2.05,0.41-4.11,0.71-6.19,0.92
			c-2.07,0.2-4.16,0.31-6.25,0.31c-2.08,0-4.17-0.1-6.24-0.31c-2.08-0.21-4.15-0.51-6.19-0.92c-2.05-0.41-4.07-0.91-6.07-1.52
			c-2-0.61-3.96-1.31-5.89-2.11c-1.93-0.8-3.82-1.69-5.66-2.68c-1.84-0.98-3.63-2.06-5.36-3.22c-1.74-1.16-3.41-2.4-5.03-3.73
			c-1.61-1.33-3.16-2.72-4.63-4.2c-1.48-1.48-2.88-3.02-4.21-4.64c-1.32-1.61-2.56-3.29-3.72-5.02c-1.16-1.74-2.23-3.52-3.22-5.37
			c-0.98-1.84-1.87-3.73-2.67-5.66s-1.5-3.89-2.11-5.89c-0.61-2-1.11-4.02-1.52-6.07C0.82,74.14,0.52,72.08,0.31,70
			C0.11,67.92,0,65.84,0,63.75"/>
	</defs>
	<clipPath id="SVGID_00000131355391844477161030000010626546017544410301_">
		<use xlink:href="#SVGID_1_"  style="overflow:visible;"/>
	</clipPath>
	<path style="clip-path:url(#SVGID_00000131355391844477161030000010626546017544410301_);fill:#222633;" d="M127.5,63.75
		c0,1.04-0.02,2.09-0.07,3.13c-0.05,1.04-0.13,2.08-0.23,3.12c-0.11,1.04-0.23,2.07-0.39,3.11c-0.15,1.03-0.33,2.06-0.53,3.08
		c-0.2,1.02-0.43,2.04-0.69,3.05c-0.25,1.01-0.53,2.02-0.83,3.02c-0.3,1-0.63,1.99-0.98,2.97c-0.35,0.98-0.73,1.96-1.13,2.92
		s-0.82,1.92-1.27,2.86c-0.44,0.94-0.91,1.88-1.4,2.8c-0.5,0.92-1.01,1.83-1.55,2.72c-0.53,0.9-1.09,1.78-1.67,2.64
		s-1.18,1.72-1.8,2.56c-0.62,0.84-1.26,1.66-1.93,2.47c-0.66,0.81-1.34,1.6-2.04,2.37c-0.7,0.77-1.42,1.53-2.16,2.27
		c-0.74,0.74-1.49,1.46-2.26,2.16c-0.78,0.7-1.57,1.38-2.37,2.04c-0.81,0.66-1.63,1.3-2.47,1.92c-0.84,0.62-1.69,1.22-2.56,1.8
		c-0.87,0.58-1.75,1.14-2.64,1.67c-0.9,0.54-1.8,1.05-2.72,1.54c-0.92,0.49-1.86,0.96-2.8,1.41c-0.94,0.45-1.9,0.87-2.86,1.27
		c-0.96,0.4-1.94,0.77-2.92,1.13c-0.98,0.35-1.97,0.68-2.97,0.98c-1,0.3-2,0.58-3.02,0.83c-1.01,0.25-2.03,0.48-3.05,0.69
		c-1.02,0.2-2.05,0.38-3.08,0.53c-1.03,0.15-2.07,0.28-3.11,0.38c-1.04,0.1-2.08,0.18-3.12,0.23c-1.04,0.05-2.08,0.08-3.13,0.08
		c-1.04,0-2.08-0.03-3.12-0.08c-1.05-0.05-2.09-0.13-3.12-0.23c-1.04-0.1-2.08-0.23-3.11-0.38c-1.03-0.15-2.06-0.33-3.08-0.53
		c-1.03-0.2-2.04-0.43-3.06-0.69c-1.01-0.25-2.01-0.53-3.01-0.83c-1-0.3-1.99-0.63-2.97-0.98c-0.98-0.35-1.96-0.73-2.92-1.13
		c-0.97-0.4-1.92-0.82-2.86-1.27c-0.95-0.45-1.88-0.91-2.8-1.41c-0.92-0.49-1.83-1.01-2.72-1.54c-0.89-0.54-1.78-1.09-2.64-1.67
		c-0.87-0.58-1.72-1.18-2.56-1.8c-0.84-0.62-1.66-1.26-2.47-1.92s-1.59-1.34-2.37-2.04c-0.77-0.7-1.53-1.42-2.26-2.16
		c-0.74-0.74-1.46-1.49-2.16-2.27c-0.7-0.77-1.38-1.56-2.05-2.37c-0.66-0.81-1.3-1.63-1.92-2.47c-0.62-0.84-1.22-1.69-1.8-2.56
		c-0.58-0.87-1.14-1.75-1.68-2.64c-0.53-0.89-1.05-1.8-1.54-2.72c-0.49-0.92-0.96-1.85-1.41-2.8c-0.44-0.94-0.86-1.9-1.26-2.86
		s-0.78-1.94-1.13-2.92c-0.35-0.98-0.68-1.97-0.98-2.97c-0.3-1-0.58-2-0.84-3.02c-0.25-1.01-0.48-2.03-0.68-3.05
		c-0.2-1.02-0.38-2.05-0.54-3.08C0.54,72.07,0.41,71.04,0.31,70c-0.1-1.04-0.18-2.08-0.23-3.12C0.03,65.84,0,64.79,0,63.75
		c0-1.04,0.03-2.09,0.08-3.13c0.05-1.04,0.13-2.08,0.23-3.12c0.1-1.04,0.23-2.07,0.38-3.11c0.16-1.03,0.34-2.06,0.54-3.08
		c0.2-1.02,0.43-2.04,0.68-3.05c0.26-1.01,0.54-2.02,0.84-3.01c0.3-1,0.63-1.99,0.98-2.97c0.35-0.98,0.73-1.96,1.13-2.92
		c0.4-0.96,0.82-1.92,1.26-2.86c0.45-0.94,0.92-1.88,1.41-2.8c0.49-0.92,1.01-1.83,1.54-2.72c0.54-0.89,1.1-1.78,1.68-2.64
		c0.58-0.87,1.18-1.72,1.8-2.56c0.62-0.84,1.26-1.66,1.92-2.47c0.67-0.81,1.35-1.6,2.05-2.37c0.7-0.77,1.42-1.53,2.16-2.27
		c0.73-0.74,1.49-1.46,2.26-2.16c0.78-0.7,1.56-1.38,2.37-2.04c0.81-0.66,1.63-1.3,2.47-1.92c0.84-0.62,1.69-1.22,2.56-1.8
		c0.86-0.58,1.75-1.14,2.64-1.67s1.8-1.05,2.72-1.54c0.92-0.49,1.85-0.96,2.8-1.41c0.94-0.45,1.89-0.87,2.86-1.27
		c0.96-0.4,1.94-0.78,2.92-1.13c0.98-0.35,1.97-0.68,2.97-0.98c1-0.3,2-0.58,3.01-0.83c1.02-0.25,2.03-0.48,3.06-0.69
		c1.02-0.2,2.05-0.38,3.08-0.53c1.03-0.15,2.07-0.28,3.11-0.38c1.03-0.1,2.07-0.18,3.12-0.23C61.67,0.03,62.71,0,63.75,0
		c1.05,0,2.09,0.02,3.13,0.08C67.92,0.13,68.96,0.2,70,0.31c1.04,0.1,2.08,0.23,3.11,0.38c1.03,0.15,2.06,0.33,3.08,0.53
		c1.02,0.2,2.04,0.43,3.05,0.69c1.02,0.25,2.02,0.53,3.02,0.83c1,0.3,1.99,0.63,2.97,0.98c0.98,0.35,1.96,0.73,2.92,1.13
		c0.96,0.4,1.92,0.82,2.86,1.27c0.94,0.45,1.88,0.92,2.8,1.41c0.92,0.49,1.82,1.01,2.72,1.54c0.89,0.54,1.77,1.09,2.64,1.67
		c0.87,0.58,1.72,1.18,2.56,1.8c0.84,0.62,1.66,1.26,2.47,1.92c0.8,0.66,1.59,1.34,2.37,2.04c0.77,0.7,1.52,1.42,2.26,2.16
		c0.74,0.74,1.46,1.49,2.16,2.27c0.7,0.77,1.38,1.56,2.04,2.37c0.67,0.81,1.31,1.63,1.93,2.47c0.62,0.84,1.22,1.69,1.8,2.56
		c0.58,0.87,1.14,1.75,1.67,2.64c0.54,0.89,1.05,1.8,1.55,2.72c0.49,0.92,0.96,1.85,1.4,2.8c0.45,0.94,0.87,1.9,1.27,2.86
		c0.4,0.96,0.78,1.94,1.13,2.92c0.35,0.98,0.68,1.97,0.98,2.97c0.3,1,0.58,2,0.83,3.01c0.26,1.01,0.49,2.03,0.69,3.05
		c0.2,1.02,0.38,2.05,0.53,3.08c0.16,1.03,0.28,2.07,0.39,3.11c0.1,1.04,0.18,2.08,0.23,3.12C127.48,61.66,127.5,62.71,127.5,63.75"
		/>
	<path style="clip-path:url(#SVGID_00000131355391844477161030000010626546017544410301_);fill:#F6F6F9;" d="M127.5,63.75h-6
		c0,0.95-0.02,1.89-0.07,2.83c-0.04,0.94-0.11,1.89-0.2,2.83c-0.1,0.94-0.21,1.88-0.35,2.81c-0.14,0.93-0.3,1.87-0.49,2.79
		c-0.18,0.93-0.39,1.85-0.62,2.76c-0.23,0.92-0.48,1.83-0.75,2.73l-0.06,0.19l0.06-0.19c-0.28,0.91-0.57,1.8-0.89,2.69
		c-0.32,0.89-0.66,1.77-1.02,2.64c-0.36,0.88-0.75,1.74-1.15,2.59c-0.4,0.86-0.83,1.7-1.28,2.53c-0.44,0.83-0.91,1.65-1.39,2.47
		c-0.49,0.81-0.99,1.61-1.52,2.39c-0.52,0.79-1.07,1.56-1.63,2.32c-0.56,0.76-1.15,1.5-1.74,2.23c-0.6,0.73-1.22,1.45-1.86,2.15
		c-0.63,0.7-1.28,1.38-1.95,2.05c-0.67,0.67-1.35,1.32-2.05,1.95c-0.7,0.63-1.42,1.25-2.15,1.85c-0.73,0.6-1.47,1.18-2.23,1.74
		c-0.76,0.56-1.54,1.11-2.32,1.63c-0.79,0.53-1.59,1.03-2.4,1.52c-0.81,0.48-1.63,0.95-2.46,1.4c-0.84,0.45-1.68,0.87-2.53,1.27
		c-0.86,0.4-1.72,0.79-2.6,1.15c-0.87,0.36-1.75,0.7-2.64,1.02c-0.89,0.32-1.79,0.62-2.69,0.89c-0.91,0.27-1.82,0.53-2.73,0.76
		c-0.92,0.23-1.84,0.44-2.77,0.62c-0.93,0.18-1.86,0.35-2.79,0.48c-0.94,0.14-1.87,0.26-2.82,0.35c-0.94,0.09-1.88,0.16-2.82,0.21
		c-0.95,0.05-1.89,0.07-2.84,0.07c-0.94,0-1.89-0.02-2.83-0.07c-0.94-0.05-1.89-0.12-2.83-0.21c-0.94-0.09-1.88-0.21-2.81-0.35
		c-0.93-0.14-1.86-0.3-2.79-0.48c-0.93-0.18-1.85-0.39-2.77-0.62c-0.91-0.23-1.83-0.48-2.73-0.76c-0.9-0.28-1.8-0.57-2.69-0.89
		c-0.89-0.32-1.77-0.66-2.65-1.02c-0.87-0.36-1.73-0.74-2.59-1.15c-0.85-0.4-1.7-0.83-2.53-1.27c-0.83-0.45-1.65-0.91-2.47-1.4
		c-0.81-0.49-1.6-0.99-2.39-1.52c-0.79-0.53-1.56-1.07-2.32-1.63c-0.76-0.56-1.5-1.14-2.23-1.74c-0.73-0.6-1.45-1.22-2.15-1.85
		c-0.7-0.63-1.38-1.29-2.05-1.95c-0.67-0.67-1.32-1.35-1.96-2.05c-0.63-0.7-1.25-1.42-1.85-2.15c-0.6-0.73-1.18-1.47-1.74-2.23
		c-0.56-0.76-1.11-1.53-1.63-2.32c-0.53-0.79-1.03-1.58-1.52-2.39c-0.49-0.81-0.95-1.63-1.4-2.47c-0.44-0.83-0.87-1.68-1.27-2.53
		c-0.41-0.85-0.79-1.72-1.15-2.59c-0.36-0.87-0.7-1.75-1.02-2.65c-0.32-0.89-0.61-1.79-0.89-2.69c-0.27-0.9-0.53-1.82-0.76-2.73
		c-0.23-0.92-0.43-1.84-0.62-2.77c-0.18-0.93-0.34-1.86-0.48-2.79c-0.14-0.93-0.26-1.87-0.35-2.81c-0.09-0.94-0.16-1.88-0.21-2.83
		C6.03,65.64,6,64.69,6,63.75c0-0.95,0.03-1.89,0.07-2.83c0.05-0.94,0.12-1.89,0.21-2.83c0.09-0.94,0.21-1.88,0.35-2.81
		c0.14-0.93,0.3-1.86,0.48-2.79c0.19-0.93,0.39-1.85,0.62-2.77c0.23-0.92,0.49-1.83,0.76-2.73c0.28-0.9,0.57-1.8,0.89-2.69
		c0.32-0.89,0.66-1.77,1.02-2.64c0.36-0.87,0.74-1.74,1.15-2.59c0.4-0.86,0.83-1.7,1.27-2.53c0.45-0.83,0.91-1.66,1.4-2.47
		c0.49-0.81,0.99-1.61,1.52-2.39c0.52-0.79,1.07-1.56,1.63-2.32c0.56-0.76,1.14-1.5,1.74-2.23c0.6-0.73,1.22-1.45,1.85-2.15
		c0.64-0.7,1.29-1.39,1.96-2.05c0.67-0.67,1.35-1.32,2.05-1.95c0.7-0.63,1.42-1.25,2.15-1.85c0.73-0.6,1.47-1.18,2.23-1.74
		c0.76-0.56,1.53-1.11,2.32-1.63c0.79-0.52,1.58-1.03,2.39-1.52c0.82-0.49,1.64-0.95,2.47-1.4c0.83-0.45,1.68-0.87,2.53-1.28
		c0.86-0.4,1.72-0.79,2.59-1.15c0.88-0.36,1.76-0.7,2.65-1.02c0.89-0.32,1.79-0.61,2.69-0.89c0.9-0.27,1.82-0.53,2.73-0.76
		c0.92-0.23,1.84-0.44,2.77-0.62c0.92-0.18,1.86-0.35,2.79-0.48c0.94-0.14,1.87-0.26,2.81-0.35c0.94-0.09,1.89-0.16,2.83-0.21
		C61.86,6.02,62.81,6,63.75,6c0.95,0,1.89,0.02,2.84,0.07c0.94,0.05,1.88,0.12,2.82,0.21c0.95,0.09,1.88,0.21,2.82,0.35
		c0.93,0.14,1.86,0.3,2.79,0.48c0.93,0.18,1.85,0.39,2.77,0.62c0.91,0.23,1.82,0.48,2.73,0.76c0.9,0.27,1.8,0.57,2.69,0.89
		c0.89,0.32,1.77,0.66,2.64,1.02c0.88,0.36,1.74,0.75,2.6,1.15c0.85,0.4,1.69,0.83,2.53,1.28c0.83,0.45,1.65,0.91,2.46,1.4
		c0.81,0.49,1.61,0.99,2.4,1.52c0.78,0.53,1.56,1.07,2.32,1.63c0.76,0.56,1.5,1.14,2.23,1.74c0.73,0.6,1.45,1.22,2.15,1.85
		c0.7,0.63,1.38,1.29,2.05,1.95c0.67,0.67,1.32,1.35,1.95,2.05c0.64,0.7,1.26,1.42,1.85,2.15c0.6,0.73,1.19,1.47,1.75,2.23
		c0.56,0.76,1.11,1.53,1.63,2.32c0.53,0.79,1.03,1.58,1.52,2.39c0.48,0.81,0.95,1.63,1.39,2.47c0.45,0.83,0.88,1.68,1.28,2.53
		c0.4,0.85,0.79,1.72,1.15,2.59c0.36,0.87,0.7,1.76,1.02,2.65c0.32,0.89,0.61,1.79,0.89,2.69c0.27,0.9,0.52,1.82,0.75,2.73
		c0.23,0.92,0.44,1.84,0.62,2.77c0.19,0.93,0.35,1.86,0.49,2.79c0.14,0.94,0.25,1.87,0.35,2.81c0.09,0.94,0.16,1.88,0.2,2.83
		c0.05,0.94,0.07,1.89,0.07,2.83H127.5h6c0-1.14-0.02-2.28-0.08-3.42c-0.06-1.14-0.14-2.28-0.25-3.42c-0.11-1.14-0.25-2.27-0.42-3.4
		s-0.36-2.25-0.59-3.37c-0.22-1.12-0.47-2.23-0.75-3.34c-0.27-1.11-0.58-2.21-0.91-3.3c-0.33-1.09-0.69-2.18-1.07-3.25
		c-0.39-1.08-0.8-2.14-1.24-3.2c-0.43-1.05-0.89-2.1-1.38-3.13c-0.49-1.03-1-2.05-1.54-3.06c-0.54-1.01-1.1-2-1.69-2.98
		c-0.59-0.98-1.2-1.94-1.83-2.89c-0.63-0.95-1.29-1.88-1.97-2.8c-0.68-0.92-1.38-1.82-2.11-2.7c-0.72-0.88-1.47-1.75-2.23-2.59
		c-0.77-0.85-1.56-1.67-2.37-2.48c-0.8-0.81-1.63-1.59-2.47-2.36c-0.85-0.77-1.71-1.51-2.6-2.24c-0.88-0.72-1.78-1.43-2.7-2.11
		c-0.91-0.68-1.85-1.34-2.79-1.97c-0.95-0.63-1.92-1.24-2.9-1.83c-0.98-0.59-1.97-1.15-2.98-1.69c-1-0.54-2.02-1.05-3.05-1.54
		c-1.04-0.49-2.08-0.95-3.13-1.39c-1.06-0.44-2.12-0.85-3.2-1.23C86.18-2.31,85.09-2.67,84-3s-2.19-0.64-3.3-0.91
		c-1.11-0.28-2.22-0.53-3.34-0.75c-1.12-0.22-2.24-0.42-3.37-0.59c-1.13-0.17-2.26-0.31-3.4-0.42c-1.14-0.11-2.27-0.2-3.41-0.25
		C66.04-5.97,64.9-6,63.75-6c-1.14,0-2.28,0.03-3.42,0.08c-1.14,0.06-2.28,0.14-3.41,0.25c-1.14,0.11-2.27,0.25-3.4,0.42
		c-1.13,0.17-2.25,0.36-3.37,0.59c-1.12,0.22-2.24,0.47-3.34,0.75C45.7-3.63,44.6-3.33,43.51-3c-1.1,0.33-2.18,0.69-3.25,1.07
		c-1.08,0.38-2.14,0.8-3.2,1.23c-1.05,0.44-2.1,0.9-3.13,1.39c-1.03,0.49-2.05,1-3.06,1.54c-1,0.54-2,1.1-2.97,1.69
		c-0.98,0.59-1.95,1.2-2.9,1.83c-0.95,0.63-1.88,1.29-2.8,1.97c-0.91,0.68-1.81,1.38-2.69,2.11c-0.89,0.72-1.75,1.47-2.6,2.24
		c-0.84,0.77-1.67,1.55-2.48,2.36c-0.8,0.81-1.59,1.63-2.36,2.48c-0.76,0.85-1.51,1.71-2.23,2.59c-0.73,0.88-1.43,1.78-2.11,2.7
		c-0.68,0.92-1.34,1.85-1.97,2.8c-0.64,0.95-1.25,1.91-1.83,2.89c-0.59,0.98-1.15,1.97-1.69,2.98C1.7,31.88,1.19,32.9,0.7,33.93
		C0.21,34.96-0.25,36-0.69,37.06c-0.43,1.05-0.84,2.12-1.23,3.19c-0.38,1.07-0.74,2.16-1.07,3.25c-0.33,1.09-0.64,2.19-0.92,3.3
		c-0.27,1.11-0.52,2.22-0.75,3.34c-0.22,1.12-0.41,2.24-0.58,3.37c-0.17,1.13-0.31,2.26-0.42,3.4c-0.11,1.13-0.2,2.27-0.25,3.41
		C-5.97,61.47-6,62.61-6,63.75c0,1.14,0.03,2.28,0.09,3.42c0.05,1.14,0.14,2.28,0.25,3.41c0.11,1.14,0.25,2.27,0.42,3.4
		c0.17,1.13,0.36,2.25,0.58,3.37c0.23,1.12,0.48,2.23,0.75,3.34c0.28,1.11,0.59,2.21,0.92,3.3c0.33,1.09,0.69,2.17,1.07,3.25
		c0.39,1.08,0.8,2.14,1.23,3.2c0.44,1.05,0.9,2.1,1.39,3.13c0.49,1.03,1,2.05,1.54,3.06c0.54,1.01,1.1,2,1.69,2.98
		c0.58,0.98,1.19,1.94,1.83,2.89c0.63,0.95,1.29,1.88,1.97,2.8c0.68,0.92,1.38,1.82,2.11,2.7c0.72,0.88,1.47,1.75,2.23,2.59
		c0.77,0.84,1.56,1.67,2.36,2.48c0.81,0.81,1.64,1.59,2.48,2.36c0.85,0.77,1.71,1.51,2.59,2.24c0.89,0.72,1.79,1.43,2.7,2.11
		c0.92,0.68,1.85,1.34,2.8,1.97c0.95,0.63,1.92,1.24,2.9,1.83c0.97,0.59,1.97,1.15,2.97,1.69c1.01,0.54,2.03,1.05,3.06,1.54
		c1.03,0.49,2.08,0.95,3.13,1.39c1.06,0.44,2.12,0.85,3.2,1.23c1.07,0.39,2.15,0.74,3.25,1.07c1.09,0.33,2.19,0.64,3.3,0.91
		c1.1,0.28,2.22,0.53,3.34,0.75c1.12,0.22,2.24,0.42,3.37,0.59c1.13,0.17,2.26,0.31,3.4,0.42c1.13,0.11,2.27,0.2,3.41,0.25
		c1.14,0.06,2.28,0.08,3.42,0.08c1.15,0,2.29-0.03,3.43-0.08c1.14-0.06,2.27-0.14,3.41-0.25c1.14-0.11,2.27-0.25,3.4-0.42
		c1.13-0.17,2.25-0.36,3.37-0.59c1.12-0.22,2.23-0.47,3.34-0.75c1.11-0.28,2.21-0.58,3.3-0.91c1.09-0.33,2.18-0.69,3.25-1.07
		c1.08-0.38,2.14-0.79,3.2-1.23c1.05-0.44,2.09-0.9,3.13-1.39c1.03-0.49,2.05-1,3.05-1.54c1.01-0.54,2-1.1,2.98-1.69
		c0.98-0.59,1.95-1.2,2.9-1.83c0.94-0.63,1.88-1.29,2.79-1.97c0.92-0.68,1.82-1.38,2.7-2.11c0.89-0.72,1.75-1.47,2.59-2.24
		c0.85-0.77,1.68-1.55,2.49-2.36c0.8-0.81,1.59-1.63,2.36-2.48c0.76-0.85,1.51-1.71,2.23-2.59c0.73-0.88,1.43-1.78,2.11-2.7
		c0.68-0.92,1.34-1.85,1.97-2.8c0.63-0.95,1.24-1.91,1.83-2.89c0.59-0.98,1.15-1.97,1.69-2.98c0.54-1.01,1.05-2.03,1.54-3.06
		c0.49-1.03,0.95-2.08,1.38-3.13c0.44-1.06,0.85-2.12,1.24-3.19c0.38-1.08,0.74-2.16,1.07-3.25v0c0.33-1.09,0.64-2.19,0.91-3.3
		c0.28-1.11,0.53-2.22,0.75-3.34c0.23-1.12,0.42-2.25,0.59-3.37c0.17-1.13,0.31-2.26,0.42-3.4c0.11-1.14,0.19-2.27,0.25-3.41
		c0.06-1.14,0.08-2.28,0.08-3.42H127.5"/>
</g>
<path class="st2" d="M84.75,65.96H43.5V24.71h41.25V65.96 M73.58,45.33c-5.22,0-9.45,4.23-9.45,9.45c0,5.22,4.23,9.45,9.45,9.45
	s9.45-4.23,9.45-9.45C83.03,49.57,78.8,45.33,73.58,45.33 M65.54,62.52L65.54,62.52c-1.93-2.01-3.13-4.73-3.13-7.73
	c0-1.58,0.33-3.09,0.93-4.45c-0.8-0.32-1.36-1.09-1.36-1.99c0-1.19,0.96-2.15,2.15-2.15c0.62,0,1.17,0.27,1.57,0.69
	c2.02-2.02,4.81-3.27,7.88-3.27c1.52,0,2.97,0.31,4.3,0.86V32.87c0-2.61-2.12-4.73-4.73-4.73H55.1c-2.6,0-4.72,2.12-4.72,4.73v24.92
	c0,2.61,2.12,4.73,4.72,4.73H65.54 M73.58,61.66c-0.47,0-0.86-0.39-0.86-0.86v-0.86c-1.07-0.01-2.05-0.4-2.75-1.11
	c-0.34-0.34-0.34-0.88,0-1.21c0.16-0.17,0.38-0.25,0.6-0.25s0.44,0.08,0.61,0.25c0.28,0.28,0.78,0.61,1.57,0.61h1.69
	c0.71,0,1.29-0.58,1.29-1.29c0-0.71-0.58-1.29-1.29-1.29h-1.5c-1.66,0-3.01-1.35-3.01-3.01c0-1.58,1.24-2.87,2.79-2.99v-0.88
	c0-0.47,0.39-0.86,0.86-0.86c0.48,0,0.86,0.39,0.86,0.86v0.87c1.33,0.07,2.17,0.82,2.44,1.24c0.26,0.4,0.14,0.93-0.25,1.19
	c-0.15,0.09-0.31,0.14-0.47,0.14c-0.28,0-0.56-0.14-0.72-0.39c0,0-0.38-0.47-1.18-0.47h-1.32c-0.71,0-1.29,0.58-1.29,1.29
	c0,0.71,0.58,1.29,1.29,1.29h1.5c1.66,0,3.01,1.35,3.01,3.01c0,1.66-1.35,3.01-3.01,3.01v0.86C74.44,61.28,74.06,61.66,73.58,61.66
	 M57.68,56.51c-1.18,0-2.15-0.96-2.15-2.15c0-1.19,0.97-2.15,2.15-2.15c1.19,0,2.15,0.96,2.15,2.15
	C59.83,55.54,58.87,56.51,57.68,56.51 M57.68,50.49c-1.18,0-2.15-0.96-2.15-2.15c0-1.19,0.97-2.15,2.15-2.15
	c1.19,0,2.15,0.96,2.15,2.15C59.83,49.53,58.87,50.49,57.68,50.49 M70.61,42.76H57.65c-1.17,0-2.12-0.95-2.12-2.12v-4.36
	c0-1.17,0.95-2.12,2.12-2.12h12.96c1.16,0,2.11,0.95,2.11,2.12v4.36C72.72,41.81,71.77,42.76,70.61,42.76"/>
<path class="st3" d="M73.58,64.24c-5.22,0-9.45-4.23-9.45-9.45c0-5.22,4.23-9.45,9.45-9.45s9.45,4.23,9.45,9.45
	C83.03,60.01,78.8,64.24,73.58,64.24 M70.57,57.37c-0.22,0-0.44,0.08-0.6,0.25c-0.34,0.34-0.34,0.88,0,1.21
	c0.7,0.71,1.68,1.1,2.75,1.11v0.86c0,0.47,0.39,0.86,0.86,0.86c0.48,0,0.86-0.39,0.86-0.86v-0.86c1.66,0,3.01-1.35,3.01-3.01
	c0-1.66-1.35-3.01-3.01-3.01h-1.5c-0.71,0-1.29-0.58-1.29-1.29c0-0.71,0.58-1.29,1.29-1.29h1.32c0.8,0,1.18,0.47,1.18,0.47
	c0.16,0.25,0.44,0.39,0.72,0.39c0.16,0,0.32-0.04,0.47-0.14c0.39-0.26,0.51-0.79,0.25-1.19c-0.27-0.41-1.11-1.17-2.44-1.24v-0.87
	c0-0.47-0.38-0.86-0.86-0.86c-0.47,0-0.86,0.39-0.86,0.86v0.88c-1.55,0.11-2.79,1.4-2.79,2.99c0,1.66,1.35,3.01,3.01,3.01h1.5
	c0.71,0,1.29,0.58,1.29,1.29c0,0.71-0.58,1.29-1.29,1.29h-1.69c-0.79,0-1.29-0.33-1.57-0.61C71.01,57.45,70.79,57.37,70.57,57.37
	 M65.54,62.52H55.1c-2.6,0-4.72-2.12-4.72-4.73V32.87c0-2.61,2.12-4.73,4.72-4.73h18.05c2.61,0,4.73,2.12,4.73,4.73v11.61
	c-1.33-0.55-2.78-0.86-4.3-0.86c-3.07,0-5.86,1.25-7.88,3.27c-0.4-0.42-0.95-0.69-1.57-0.69c-1.19,0-2.15,0.96-2.15,2.15
	c0,0.91,0.56,1.68,1.36,1.99c-0.6,1.37-0.93,2.87-0.93,4.45C62.41,57.79,63.61,60.51,65.54,62.52 M57.68,52.21
	c-1.18,0-2.15,0.96-2.15,2.15c0,1.19,0.97,2.15,2.15,2.15c1.19,0,2.15-0.96,2.15-2.15C59.83,53.17,58.87,52.21,57.68,52.21
	 M57.68,46.19c-1.18,0-2.15,0.96-2.15,2.15c0,1.19,0.97,2.15,2.15,2.15c1.19,0,2.15-0.96,2.15-2.15
	C59.83,47.15,58.87,46.19,57.68,46.19 M57.65,34.16c-1.17,0-2.12,0.95-2.12,2.12v4.36c0,1.17,0.95,2.12,2.12,2.12h12.96
	c1.16,0,2.11-0.95,2.11-2.12v-4.36c0-1.17-0.95-2.12-2.11-2.12H57.65"/>
<path class="st4" d="M20.45,89.46v-1.85h-5.13v-1.98h4.46v-1.85h-4.46v-1.92h5.06v-1.85h-7.13v9.45H20.45L20.45,89.46z M28.5,89.53
	l3.82-9.52h-2.24l-2.47,6.66l-2.47-6.66h-2.3l3.82,9.52H28.5L28.5,89.53z"/>
<path class="st4" d="M35.08,89.46l0.86-2.12h4l0.86,2.12h2.17l-4.05-9.52h-1.92l-4.05,9.52H35.08L35.08,89.46z M37.95,82.44
	l1.26,3.06h-2.51L37.95,82.44L37.95,82.44z M52.58,89.46v-1.89h-4.71v-7.56h-2.08v9.45H52.58L52.58,89.46z"/>
<path class="st4" d="M62.21,88.53c0.73-0.72,1.1-1.78,1.1-3.19v-5.33h-2.08v5.41c0,0.74-0.18,1.3-0.53,1.69
	c-0.36,0.39-0.86,0.58-1.51,0.58c-0.65,0-1.15-0.2-1.51-0.6c-0.36-0.4-0.53-0.98-0.53-1.73v-5.35h-2.08v5.4
	c0,1.37,0.36,2.41,1.08,3.13c0.72,0.72,1.72,1.07,3.01,1.07C60.46,89.61,61.48,89.25,62.21,88.53L62.21,88.53z M67.75,89.46
	l0.86-2.12h4l0.86,2.12h2.17l-4.05-9.52h-1.92l-4.05,9.52H67.75L67.75,89.46z M70.61,82.44l1.26,3.06h-2.51L70.61,82.44L70.61,82.44
	z"/>
<path class="st4" d="M81.52,89.46v-7.53h2.88v-1.92h-7.83v1.92h2.88v7.53H81.52L81.52,89.46z M89.52,89.46v-9.45h-2.08v9.45H89.52
	L89.52,89.46z M102.85,84.73c0-1.37-0.47-2.52-1.42-3.47c-0.95-0.95-2.14-1.42-3.58-1.42c-1.44,0-2.64,0.47-3.6,1.42
	c-0.96,0.95-1.44,2.1-1.44,3.46c0,1.37,0.47,2.52,1.42,3.47c0.95,0.95,2.14,1.42,3.58,1.42c1.44,0,2.64-0.47,3.6-1.42
	C102.37,87.25,102.85,86.09,102.85,84.73L102.85,84.73L102.85,84.73z M94.98,84.73c0-0.84,0.27-1.54,0.8-2.11
	c0.53-0.57,1.21-0.86,2.04-0.86c0.83,0,1.51,0.29,2.05,0.86c0.54,0.58,0.81,1.28,0.81,2.11c0,0.84-0.27,1.54-0.8,2.11
	c-0.53,0.57-1.21,0.86-2.04,0.86c-0.83,0-1.51-0.29-2.05-0.86C95.25,86.26,94.98,85.56,94.98,84.73L94.98,84.73L94.98,84.73z
	 M108.1,89.46v-6.01l4.58,6.01h1.77v-9.45h-2.05v5.82l-4.43-5.82h-1.92v9.45H108.1L108.1,89.46z"/>
</svg>
