<?xml version="1.0" standalone="no"?>
<!DOCTYPE svg PUBLIC "-//W3C//DTD SVG 20010904//EN"
 "http://www.w3.org/TR/2001/REC-SVG-20010904/DTD/svg10.dtd">
<svg version="1.0" xmlns="http://www.w3.org/2000/svg"
 width="360.000000pt" height="360.000000pt" viewBox="0 0 360.000000 360.000000"
 preserveAspectRatio="xMidYMid meet">
<metadata>
Created by potrace 1.14, written by Peter Selinger 2001-2017
</metadata>
<g transform="translate(0.000000,360.000000) scale(0.100000,-0.100000)"
fill="#000000" stroke="none">
<path d="M1702 3581 c-60 -21 -138 -71 -202 -130 -25 -23 -62 -54 -82 -68 -41
-28 -60 -28 -203 2 -263 55 -407 -25 -485 -270 -41 -129 -53 -157 -74 -170
-12 -8 -72 -32 -135 -54 -62 -22 -138 -56 -167 -75 -126 -84 -169 -219 -127
-396 38 -161 39 -176 10 -218 -14 -20 -47 -59 -72 -87 -89 -96 -129 -169 -141
-252 -3 -29 -10 -50 -15 -47 -16 10 -9 -55 12 -119 20 -59 64 -128 125 -192
15 -16 43 -50 62 -74 31 -41 33 -48 28 -100 -3 -31 -12 -88 -20 -128 -7 -40
-12 -107 -11 -150 6 -178 92 -269 320 -338 127 -39 135 -46 175 -162 57 -169
104 -245 185 -300 74 -50 179 -58 325 -24 142 33 153 33 187 8 16 -12 58 -47
92 -77 84 -75 173 -128 230 -136 25 -4 51 -11 58 -16 13 -11 77 -3 132 17 53
18 106 53 171 112 129 115 132 116 252 89 133 -31 227 -35 301 -12 124 37 189
123 251 328 15 48 35 96 46 106 11 10 64 33 118 51 182 62 263 119 309 219 34
73 34 170 0 316 -30 129 -29 134 52 226 83 94 131 164 147 215 12 38 22 90 19
94 -3 2 2 9 10 15 13 10 13 19 0 72 -20 86 -69 165 -159 259 -16 16 -40 47
-53 67 -27 40 -27 76 -4 173 29 117 30 225 5 297 -20 57 -84 130 -144 166 -20
12 -86 37 -147 57 -62 20 -122 44 -133 53 -12 10 -39 68 -65 140 -24 68 -58
145 -75 172 -38 59 -113 117 -175 136 -50 14 -167 12 -230 -5 -22 -5 -74 -13
-115 -16 -85 -6 -87 -5 -187 82 -33 29 -71 61 -84 72 -96 75 -222 104 -317 72z
m217 -390 c140 -120 191 -145 301 -148 47 -1 105 3 130 8 76 18 84 19 137 25
61 7 55 14 112 -146 78 -217 126 -264 345 -339 66 -23 124 -45 128 -49 16 -16
10 -82 -16 -195 -7 -30 -12 -88 -11 -129 2 -104 46 -192 154 -312 45 -49 81
-96 81 -105 0 -20 -28 -59 -85 -120 -143 -154 -175 -262 -134 -462 28 -136 29
-158 9 -169 -10 -5 -67 -27 -126 -48 -142 -51 -181 -71 -230 -124 -57 -60 -77
-97 -119 -222 -20 -60 -40 -117 -45 -126 -10 -19 -21 -19 -137 1 -38 6 -88 15
-112 19 -142 24 -250 -20 -405 -164 -38 -35 -77 -67 -87 -69 -11 -3 -17 -1
-13 4 3 5 -3 9 -14 9 -10 0 -61 36 -113 81 -52 44 -122 94 -157 111 -54 27
-73 31 -145 31 -45 0 -113 -7 -152 -16 -38 -8 -89 -18 -112 -22 -52 -7 -57 0
-103 135 -75 221 -141 290 -340 350 -41 12 -92 31 -113 42 -38 19 -38 19 -31
66 3 26 12 78 20 115 16 77 18 183 5 240 -13 57 -68 141 -143 221 -37 39 -72
83 -79 98 -13 31 -4 46 81 138 46 51 95 118 123 170 32 58 34 180 6 316 -17
84 -20 120 -13 132 6 9 62 35 125 58 159 57 159 57 214 101 60 47 93 105 145
254 22 61 44 117 50 124 13 16 51 13 184 -15 162 -33 296 -1 401 97 96 89 140
123 159 123 12 0 65 -38 125 -89z"/>
</g>
</svg>
