<?xml version="1.0" encoding="utf-8"?>
<!-- Generator: Adobe Illustrator 27.5.0, SVG Export Plug-In . SVG Version: 6.00 Build 0)  -->
<svg version="1.1" id="Layer_1" xmlns="http://www.w3.org/2000/svg" xmlns:xlink="http://www.w3.org/1999/xlink" x="0px"
     y="0px"
     viewBox="0 0 337.9 344.4" style="enable-background:new 0 0 337.9 344.4;" xml:space="preserve">
<style type="text/css">
	.st0{fill:#006BFF;}
	.st1{fill:#0AE8F0;}
</style>
  <g id="Layer_2_00000117637653852611942470000018279686811886576824_">
	<g id="Layer_1-2">
		<g id="Brand_mark">
			<path class="st0" d="M231.6,223.3c-10.9,9.7-24.6,21.8-49.3,21.8h-14.8c-17.9,0-34.2-6.5-45.9-18.3
				c-11.4-11.5-17.7-27.3-17.7-44.4v-20.2c0-17.1,6.3-32.9,17.7-44.4c11.7-11.8,27.9-18.3,45.9-18.3h14.8
				c24.8,0,38.4,12.1,49.3,21.8c11.4,10,21.1,18.7,47.3,18.7c4,0,8-0.3,11.9-0.9l-0.1-0.2c-1.6-3.9-3.4-7.7-5.5-11.3l-17.5-30.2
				c-16-27.7-45.6-44.8-77.6-44.8h-34.9c-32,0-61.6,17.1-77.6,44.8l-17.5,30.2c-16,27.7-16,61.9,0,89.7l17.5,30.2
				c16,27.7,45.6,44.8,77.6,44.8h34.9c32,0,61.6-17.1,77.6-44.8l17.5-30.2c2.1-3.6,3.9-7.4,5.5-11.3l0.1-0.2c-3.9-0.7-7.9-1-11.9-1
				C252.7,204.6,242.9,213.2,231.6,223.3"/>
      <path class="st0" d="M182.3,117.7h-14.8c-27.3,0-45.2,19.5-45.2,44.4v20.2c0,24.9,17.9,44.4,45.2,44.4h14.8
				c39.7,0,36.6-40.5,96.6-40.5c5.7,0,11.4,0.5,16.9,1.6c1.8-10.3,1.8-20.8,0-31.1c-5.6,1-11.3,1.6-16.9,1.6
				C218.8,158.2,222,117.7,182.3,117.7"/>
      <path class="st0" d="M330.2,202.6c-10.2-7.5-22-12.5-34.5-14.8c0,0.1,0,0.2,0,0.3c-1.1,6-2.7,11.8-5,17.4
				c10.3,1.6,20.1,5.6,28.5,11.7c0,0.1,0,0.2-0.1,0.3c-25,81-111,126.4-192,101.4c-81-25-126.4-111-101.4-192s111-126.4,192-101.4
				c48.5,15,86.4,52.9,101.4,101.4c0,0.1,0,0.2,0.1,0.3c-8.4,6.1-18.2,10.1-28.5,11.7c2.2,5.6,3.9,11.5,5,17.5c0,0.1,0,0.2,0,0.3
				c12.5-2.3,24.2-7.3,34.5-14.8c9.8-7.3,7.9-15.5,6.4-20.3C308.7,30.6,212.3-20.3,121.5,7.7S-20.3,132,7.7,222.9
				S132,364.7,222.9,336.7c54.4-16.8,97-59.4,113.8-113.8C338.2,218,340.1,209.8,330.2,202.6"/>
      <path class="st1" d="M290.7,138.9c-3.9,0.7-7.9,1-11.9,1c-26.1,0-35.9-8.7-47.2-18.7c-10.9-9.7-24.6-21.8-49.3-21.8h-14.8
				c-17.9,0-34.2,6.5-45.9,18.3c-11.4,11.5-17.7,27.3-17.7,44.4v20.2c0,17.1,6.3,32.9,17.7,44.4c11.7,11.8,27.9,18.3,45.9,18.3h14.8
				c24.8,0,38.4-12.1,49.3-21.8c11.3-10,21.1-18.7,47.2-18.7c4,0,8,0.3,11.9,0.9c2.3-5.6,3.9-11.5,5-17.4c0-0.1,0-0.2,0-0.3
				c-5.6-1-11.3-1.6-16.9-1.6c-60,0-56.9,40.5-96.6,40.5h-14.8c-27.3,0-45.2-19.5-45.2-44.4v-20.3c0-24.9,17.9-44.4,45.2-44.4h14.8
				c39.7,0,36.6,40.5,96.6,40.5c5.7,0,11.4-0.5,16.9-1.6c0-0.1,0-0.2,0-0.3C294.7,150.3,293,144.5,290.7,138.9"/>
      <path class="st1" d="M290.7,138.9c-3.9,0.7-7.9,1-11.9,1c-26.1,0-35.9-8.7-47.2-18.7c-10.9-9.7-24.6-21.8-49.3-21.8h-14.8
				c-17.9,0-34.2,6.5-45.9,18.3c-11.4,11.5-17.7,27.3-17.7,44.4v20.2c0,17.1,6.3,32.9,17.7,44.4c11.7,11.8,27.9,18.3,45.9,18.3h14.8
				c24.8,0,38.4-12.1,49.3-21.8c11.3-10,21.1-18.7,47.2-18.7c4,0,8,0.3,11.9,0.9c2.3-5.6,3.9-11.5,5-17.4c0-0.1,0-0.2,0-0.3
				c-5.6-1-11.3-1.6-16.9-1.6c-60,0-56.9,40.5-96.6,40.5h-14.8c-27.3,0-45.2-19.5-45.2-44.4v-20.3c0-24.9,17.9-44.4,45.2-44.4h14.8
				c39.7,0,36.6,40.5,96.6,40.5c5.7,0,11.4-0.5,16.9-1.6c0-0.1,0-0.2,0-0.3C294.7,150.3,293,144.5,290.7,138.9"/>
		</g>
	</g>
</g>
</svg>
