<?xml version="1.0" encoding="utf-8"?>
<!-- Generator: Adobe Illustrator 27.5.0, SVG Export Plug-In . SVG Version: 6.00 Build 0)  -->
<svg version="1.1" id="Layer_1" xmlns="http://www.w3.org/2000/svg" xmlns:xlink="http://www.w3.org/1999/xlink" x="0px" y="0px"
	 viewBox="0 0 354 56.8" style="enable-background:new 0 0 354 56.8;" xml:space="preserve">
<style type="text/css">
	.st0{fill:#5EBE78;stroke:#5EBE78;stroke-width:3;stroke-miterlimit:10;}
	.st1{fill:#FFFFFF;}
</style>
<g>
	<path class="st0" d="M52.8,23.8c-0.5-0.5-1.1-1.3-1.2-1.6c-0.1-0.4,0.1-1.4,0.3-2.1c0.3-1.5,0.7-3.4-0.2-5.1
		c-1-1.7-2.8-2.3-4.3-2.7c-0.7-0.2-1.6-0.5-1.9-0.8c-0.3-0.3-0.6-1.2-0.8-1.9c-0.5-1.5-1.1-3.3-2.7-4.3c-1.6-1-3.5-0.6-5.1-0.2
		c-0.9,0-1.9,0.2-2.3,0.1C34.2,5.1,33.5,4.4,33,4c-1.2-1.1-2.6-2.4-4.6-2.4h-0.1v4.2h0.1c0.4,0,1.3,0.8,1.8,1.3
		c0.9,0.8,2,1.8,3.3,2.2c1.4,0.4,2.8,0.1,4.1-0.2c0.6-0.1,1.8-0.4,2.1-0.2s0.7,1.4,0.9,2c0.4,1.2,0.8,2.6,1.8,3.6s2.4,1.5,3.6,1.8
		c0.6,0.2,1.8,0.6,2,0.9c0.1,0.3-0.1,1.5-0.2,2.1c-0.3,1.3-0.6,2.7-0.2,4.1c0.4,1.3,1.3,2.4,2.2,3.3c0.5,0.5,1.3,1.4,1.3,1.8h4.2
		C55.2,26.4,53.9,25,52.8,23.8z"/>
	<path class="st0" d="M51.1,28.4L51.1,28.4c0,0.4-0.8,1.3-1.3,1.8c-0.8,0.9-1.8,2-2.2,3.3c-0.4,1.4-0.1,2.8,0.2,4.1
		c0.1,0.6,0.4,1.8,0.2,2.1s-1.4,0.7-2,0.9c-1.2,0.4-2.6,0.8-3.6,1.8s-1.5,2.4-1.8,3.6c-0.2,0.6-0.6,1.8-0.9,2
		c-0.3,0.1-1.5-0.1-2.1-0.2c-1.3-0.3-2.7-0.6-4.1-0.2c-1.3,0.4-2.4,1.3-3.3,2.2c-0.5,0.5-1.4,1.3-1.8,1.3c0,0,0,0-0.1,0v4.2
		c0,0,0,0,0.1,0c2,0,3.4-1.3,4.6-2.4c0.5-0.5,1.3-1.1,1.6-1.2c0.4-0.1,1.4,0.1,2.1,0.3c1.5,0.3,3.4,0.7,5.1-0.2
		c1.7-1,2.3-2.8,2.7-4.3c0.2-0.7,0.5-1.6,0.8-1.9c0.3-0.3,1.2-0.6,1.9-0.8c1.5-0.5,3.3-1.1,4.3-2.7c1-1.6,0.6-3.5,0.2-5.1
		c-0.2-0.8-0.4-1.7-0.3-2.1c0.1-0.4,0.8-1.1,1.2-1.6c1.1-1.2,2.4-2.6,2.4-4.6l0,0L51.1,28.4z"/>
	<path class="st0" d="M5.7,28.4c0-0.4,0.8-1.3,1.3-1.8c0.8-0.9,1.8-2,2.2-3.3c0.4-1.4,0.1-2.8-0.2-4.1c-0.1-0.6-0.4-1.8-0.2-2.1
		c0.2-0.3,1.4-0.7,2-0.9c1.2-0.4,2.6-0.8,3.6-1.8s1.4-2.4,1.8-3.6c0.2-0.6,0.6-1.8,0.9-2c0.3-0.1,1.5,0.1,2.1,0.2
		c1.3,0.3,2.7,0.6,4.1,0.2c1.3-0.4,2.4-1.3,3.3-2.2c0.5-0.4,1.3-1.2,1.7-1.3V1.5c-1.9,0.1-3.3,1.3-4.5,2.4c-0.5,0.5-1.3,1.1-1.6,1.2
		c-0.4,0.1-1.4-0.1-2.1-0.3C18.6,4.5,16.7,4.1,15,5c-1.7,1-2.3,2.8-2.7,4.3c-0.2,0.7-0.5,1.6-0.8,1.9c-0.3,0.3-1.2,0.6-1.9,0.8
		c-1.5,0.5-3.3,1.1-4.3,2.7s-0.6,3.5-0.2,5.1c0.2,0.8,0.4,1.7,0.3,2.1S4.6,23,4.2,23.5c-1.1,1.2-2.4,2.6-2.4,4.6l0,0L5.7,28.4
		L5.7,28.4z"/>
	<path class="st0" d="M26.6,49.8c-0.9-0.8-2-1.8-3.3-2.2c-0.5-0.1-0.9-0.2-1.4-0.2c-0.9,0-1.8,0.2-2.7,0.4c-0.6,0.1-1.8,0.4-2.1,0.2
		c-0.3-0.2-0.7-1.4-0.9-2c-0.4-1.2-0.8-2.6-1.8-3.6s-2.4-1.5-3.6-1.8c-0.6-0.2-1.8-0.6-2-0.9c-0.1-0.3,0.1-1.5,0.2-2.1
		c0.3-1.3,0.6-2.7,0.2-4.1c-0.4-1.3-1.3-2.4-2.2-3.3c-0.5-0.5-1.3-1.4-1.3-1.8H1.5c0,1.9,1.3,3.4,2.4,4.6c0.5,0.5,1.1,1.3,1.2,1.6
		C5.2,35,5,36,4.9,36.8c-0.3,1.5-0.7,3.4,0.2,5.1c1,1.7,2.8,2.3,4.3,2.7c0.7,0.2,1.6,0.5,1.9,0.8c0.3,0.3,0.6,1.2,0.8,1.9
		c0.5,1.5,1.1,3.3,2.7,4.3s3.5,0.6,5.1,0.2c0.8-0.2,1.7-0.4,2.1-0.3c0.4,0.1,1.1,0.8,1.6,1.2c1.2,1.1,2.6,2.4,4.5,2.4v-4.2
		C27.9,51,27.1,50.2,26.6,49.8z"/>
</g>
<path class="st1" d="M70.5,20.1v-5.2h20.9v5.2h-7.2v18.8h-6.4V20.1H70.5z"/>
<path class="st1" d="M100.4,28.7v10.1h-6.5v-24h6.2v9.4h0.2c0.4-1.1,1.1-2,2-2.7s2.1-1,3.4-1c1.3,0,2.4,0.3,3.3,0.9s1.7,1.4,2.2,2.4
	s0.8,2.2,0.8,3.5v11.5h-6.5V28.7c0-0.9-0.2-1.6-0.7-2.1s-1.1-0.8-1.9-0.8c-0.5,0-1,0.1-1.4,0.3s-0.7,0.6-0.9,1
	S100.4,28.1,100.4,28.7z"/>
<path class="st1" d="M123.9,39.1c-1.9,0-3.6-0.4-5-1.1s-2.5-1.8-3.2-3.2s-1.1-3-1.1-5c0-1.9,0.4-3.5,1.1-4.9s1.8-2.5,3.2-3.2
	s3-1.2,4.8-1.2c1.4,0,2.6,0.2,3.7,0.6s2,1,2.8,1.8s1.4,1.8,1.8,2.9s0.6,2.4,0.6,3.9v1.5h-16.1v-3.6h10.1c0-0.5-0.1-1-0.4-1.4
	s-0.6-0.7-1-0.9s-0.9-0.3-1.4-0.3c-0.5,0-1,0.1-1.4,0.3s-0.8,0.5-1,0.9s-0.4,0.8-0.4,1.4v3.8c0,0.6,0.1,1.1,0.4,1.5s0.6,0.8,1,1.1
	s1,0.4,1.6,0.4c0.4,0,0.9-0.1,1.2-0.2s0.7-0.3,1-0.5s0.5-0.5,0.6-0.9h5.9c-0.2,1.2-0.7,2.3-1.4,3.3s-1.8,1.6-3,2.1
	S125.5,39.1,123.9,39.1z"/>
<path class="st1" d="M148.3,14.8v24h-6.5v-24H148.3z"/>
<path class="st1" d="M151.5,38.8v-18h6.1v3.4h0.2c0.4-1.1,1-2,1.9-2.7s2-1,3.2-1c1.3,0,2.4,0.3,3.3,1s1.5,1.6,1.7,2.7h0.2
	c0.3-1.1,1-2,1.9-2.7s2.2-1,3.5-1c1.7,0,3.1,0.6,4.2,1.7s1.6,2.6,1.6,4.4v12.1h-6.5V28.3c0-0.8-0.2-1.4-0.6-1.9s-0.9-0.7-1.6-0.7
	c-0.7,0-1.2,0.2-1.6,0.7s-0.6,1.1-0.6,1.9v10.5h-6.2V28.3c0-0.8-0.2-1.4-0.6-1.9s-0.9-0.7-1.6-0.7c-0.4,0-0.8,0.1-1.1,0.3
	s-0.6,0.5-0.7,0.9s-0.3,0.8-0.3,1.4v10.5H151.5z"/>
<path class="st1" d="M182.5,45.6V20.8h6.4v3.1h0.1c0.2-0.6,0.6-1.2,1-1.7s1-0.9,1.7-1.2s1.5-0.5,2.3-0.5c1.2,0,2.3,0.3,3.4,0.9
	s1.9,1.6,2.6,3s1,3.1,1,5.3c0,2.1-0.3,3.8-1,5.2s-1.5,2.4-2.6,3.1s-2.3,1-3.5,1c-0.8,0-1.6-0.1-2.3-0.4s-1.2-0.7-1.7-1.1
	s-0.8-1-1.1-1.6H189v9.7H182.5z M188.8,29.8c0,0.9,0.1,1.6,0.3,2.3s0.6,1.1,1,1.5s0.9,0.5,1.5,0.5s1.1-0.2,1.5-0.5s0.7-0.8,1-1.5
	s0.3-1.4,0.3-2.3s-0.1-1.7-0.3-2.3s-0.5-1.1-1-1.5s-0.9-0.5-1.5-0.5s-1.1,0.2-1.5,0.5s-0.8,0.8-1,1.5S188.8,28.9,188.8,29.8z"/>
<path class="st1" d="M208.9,39.1c-1.1,0-2.2-0.2-3-0.6s-1.6-1-2.1-1.7s-0.8-1.8-0.8-3c0-1,0.2-1.8,0.5-2.5s0.8-1.3,1.4-1.7
	s1.3-0.8,2.1-1s1.7-0.4,2.6-0.5c1-0.1,1.8-0.2,2.4-0.3s1.1-0.3,1.3-0.5s0.4-0.5,0.4-0.8v0c0-0.5-0.2-0.8-0.5-1.1s-0.8-0.4-1.4-0.4
	c-0.6,0-1.1,0.1-1.5,0.4s-0.6,0.7-0.7,1.2h-6c0.1-1.1,0.4-2.1,1-3s1.5-1.7,2.7-2.2s2.7-0.8,4.5-0.8c1.3,0,2.4,0.2,3.5,0.5
	s1.9,0.7,2.6,1.3s1.3,1.2,1.6,1.9s0.6,1.5,0.6,2.3v12.3h-6v-2.5h-0.1c-0.4,0.7-0.8,1.2-1.3,1.6s-1.1,0.7-1.7,0.9
	S209.7,39.1,208.9,39.1z M211,35c0.5,0,1-0.1,1.4-0.3s0.8-0.5,1.1-0.9s0.4-0.8,0.4-1.4v-1.5c-0.2,0.1-0.4,0.1-0.5,0.2
	s-0.4,0.1-0.6,0.2s-0.4,0.1-0.7,0.2s-0.5,0.1-0.7,0.1c-0.5,0.1-0.9,0.2-1.2,0.4s-0.6,0.4-0.7,0.6s-0.2,0.5-0.2,0.8
	c0,0.5,0.2,0.9,0.5,1.1S210.5,35,211,35z"/>
<path class="st1" d="M232.1,39.1c-2,0-3.6-0.4-5-1.2s-2.5-1.9-3.2-3.3s-1.1-3-1.1-4.9s0.4-3.5,1.1-4.9s1.8-2.5,3.2-3.3
	s3.1-1.2,5-1.2c1.8,0,3.3,0.3,4.6,1s2.3,1.5,3,2.7s1.1,2.5,1.1,4.1h-6c-0.1-0.9-0.4-1.7-0.8-2.2s-1-0.7-1.8-0.7
	c-0.6,0-1.1,0.2-1.5,0.5s-0.8,0.8-1,1.5s-0.4,1.5-0.4,2.5s0.1,1.8,0.4,2.5s0.6,1.1,1,1.5s0.9,0.5,1.5,0.5c0.5,0,0.9-0.1,1.3-0.3
	s0.7-0.6,0.9-1s0.4-1,0.4-1.6h6c0,1.6-0.4,3-1.1,4.1s-1.7,2.1-3,2.7S233.8,39.1,232.1,39.1z"/>
<path class="st1" d="M254.1,20.8v4.7h-11.9v-4.7H254.1z M244.6,16.5h6.5V33c0,0.2,0,0.5,0.1,0.6s0.2,0.3,0.4,0.4s0.4,0.1,0.7,0.1
	c0.2,0,0.4,0,0.7-0.1s0.5-0.1,0.6-0.1l0.9,4.5c-0.3,0.1-0.7,0.2-1.2,0.3s-1.2,0.2-1.9,0.2c-1.5,0.1-2.7-0.1-3.7-0.5s-1.8-1-2.3-1.8
	s-0.8-1.9-0.7-3.1V16.5z"/>
<path class="st1" d="M269.3,38.8l-7.1-24h7.3l3.3,14.8h0.2l3.9-14.8h5.7l3.9,14.8h0.2l3.3-14.8h7.3l-7.1,24h-6.2l-4.1-13.4h-0.2
	l-4.1,13.4H269.3z"/>
<path class="st1" d="M302.3,39.1c-1.1,0-2.2-0.2-3-0.6s-1.6-1-2.1-1.7s-0.8-1.8-0.8-3c0-1,0.2-1.8,0.5-2.5s0.8-1.3,1.4-1.7
	s1.3-0.8,2.1-1s1.7-0.4,2.6-0.5c1-0.1,1.8-0.2,2.4-0.3s1.1-0.3,1.3-0.5s0.4-0.5,0.4-0.8v0c0-0.5-0.2-0.8-0.5-1.1s-0.8-0.4-1.4-0.4
	c-0.6,0-1.1,0.1-1.5,0.4s-0.6,0.7-0.7,1.2h-6c0.1-1.1,0.4-2.1,1-3s1.5-1.7,2.7-2.2s2.7-0.8,4.5-0.8c1.3,0,2.4,0.2,3.5,0.5
	s1.9,0.7,2.6,1.3s1.3,1.2,1.6,1.9s0.6,1.5,0.6,2.3v12.3h-6v-2.5h-0.1c-0.4,0.7-0.8,1.2-1.3,1.6s-1.1,0.7-1.7,0.9
	S303.1,39.1,302.3,39.1z M304.4,35c0.5,0,1-0.1,1.4-0.3s0.8-0.5,1.1-0.9s0.4-0.8,0.4-1.4v-1.5c-0.2,0.1-0.4,0.1-0.5,0.2
	s-0.4,0.1-0.6,0.2s-0.4,0.1-0.7,0.2s-0.5,0.1-0.7,0.1c-0.5,0.1-0.9,0.2-1.2,0.4s-0.6,0.4-0.7,0.6s-0.2,0.5-0.2,0.8
	c0,0.5,0.2,0.9,0.5,1.1S303.9,35,304.4,35z"/>
<path class="st1" d="M334.3,20.8l-6,18h-7.5l-6-18h6.8l2.9,11.9h0.2l2.9-11.9H334.3z"/>
<path class="st1" d="M344.2,39.1c-1.9,0-3.6-0.4-5-1.1s-2.5-1.8-3.2-3.2s-1.1-3-1.1-5c0-1.9,0.4-3.5,1.1-4.9s1.8-2.5,3.2-3.2
	s3-1.2,4.8-1.2c1.4,0,2.6,0.2,3.7,0.6s2,1,2.8,1.8s1.4,1.8,1.8,2.9s0.6,2.4,0.6,3.9v1.5h-16.1v-3.6H347c0-0.5-0.1-1-0.4-1.4
	s-0.6-0.7-1-0.9s-0.9-0.3-1.4-0.3c-0.5,0-1,0.1-1.4,0.3s-0.8,0.5-1,0.9s-0.4,0.8-0.4,1.4v3.8c0,0.6,0.1,1.1,0.4,1.5s0.6,0.8,1,1.1
	s1,0.4,1.6,0.4c0.4,0,0.9-0.1,1.2-0.2s0.7-0.3,1-0.5s0.5-0.5,0.6-0.9h5.9c-0.2,1.2-0.7,2.3-1.4,3.3s-1.8,1.6-3,2.1
	S345.8,39.1,344.2,39.1z"/>
</svg>
