<?xml version="1.0" encoding="utf-8"?>
<!-- Generator: Adobe Illustrator 27.5.0, SVG Export Plug-In . SVG Version: 6.00 Build 0)  -->
<svg version="1.1" id="Layer_1" xmlns="http://www.w3.org/2000/svg" xmlns:xlink="http://www.w3.org/1999/xlink" x="0px" y="0px"
	 viewBox="0 0 354 56.8" style="enable-background:new 0 0 354 56.8;" xml:space="preserve">
<style type="text/css">
	.st0{fill:#5EBE78;stroke:#5EBE78;stroke-width:3;stroke-miterlimit:10;}
	.st1{fill:#414042;}
	.st2{font-family:'Inter-Black';}
	.st3{font-size:33px;}
</style>
<g>
	<path class="st0" d="M52.8,23.8c-0.5-0.5-1.1-1.3-1.2-1.6c-0.1-0.4,0.1-1.4,0.3-2.1c0.3-1.5,0.7-3.4-0.2-5.1
		c-1-1.7-2.8-2.3-4.3-2.7c-0.7-0.2-1.6-0.5-1.9-0.8c-0.3-0.3-0.6-1.2-0.8-1.9c-0.5-1.5-1.1-3.3-2.7-4.3c-1.6-1-3.5-0.6-5.1-0.2
		C36,5.1,35,5.3,34.6,5.2c-0.4-0.1-1.1-0.8-1.6-1.2c-1.2-1.1-2.6-2.4-4.6-2.4c0,0-0.1,0-0.1,0l0,4.2c0,0,0.1,0,0.1,0
		c0.4,0,1.3,0.8,1.8,1.3c0.9,0.8,2,1.8,3.3,2.2c1.4,0.4,2.8,0.1,4.1-0.2c0.6-0.1,1.8-0.4,2.1-0.2c0.3,0.2,0.7,1.4,0.9,2
		c0.4,1.2,0.8,2.6,1.8,3.6c1,1,2.4,1.5,3.6,1.8c0.6,0.2,1.8,0.6,2,0.9c0.1,0.3-0.1,1.5-0.2,2.1c-0.3,1.3-0.6,2.7-0.2,4.1
		c0.4,1.3,1.3,2.4,2.2,3.3c0.5,0.5,1.3,1.4,1.3,1.8l4.2,0C55.2,26.4,53.9,25,52.8,23.8z"/>
	<path class="st0" d="M51.1,28.4C51.1,28.4,51.1,28.4,51.1,28.4c0,0.4-0.8,1.3-1.3,1.8c-0.8,0.9-1.8,2-2.2,3.3
		c-0.4,1.4-0.1,2.8,0.2,4.1c0.1,0.6,0.4,1.8,0.2,2.1c-0.2,0.3-1.4,0.7-2,0.9c-1.2,0.4-2.6,0.8-3.6,1.8c-1,1-1.5,2.4-1.8,3.6
		c-0.2,0.6-0.6,1.8-0.9,2c-0.3,0.1-1.5-0.1-2.1-0.2c-1.3-0.3-2.7-0.6-4.1-0.2c-1.3,0.4-2.4,1.3-3.3,2.2c-0.5,0.5-1.4,1.3-1.8,1.3
		c0,0,0,0-0.1,0l0,4.2c0,0,0,0,0.1,0c2,0,3.4-1.3,4.6-2.4c0.5-0.5,1.3-1.1,1.6-1.2c0.4-0.1,1.4,0.1,2.1,0.3c1.5,0.3,3.4,0.7,5.1-0.2
		c1.7-1,2.3-2.8,2.7-4.3c0.2-0.7,0.5-1.6,0.8-1.9c0.3-0.3,1.2-0.6,1.9-0.8c1.5-0.5,3.3-1.1,4.3-2.7c1-1.6,0.6-3.5,0.2-5.1
		c-0.2-0.8-0.4-1.7-0.3-2.1c0.1-0.4,0.8-1.1,1.2-1.6c1.1-1.2,2.4-2.6,2.4-4.6c0,0,0,0,0,0L51.1,28.4z"/>
	<path class="st0" d="M5.7,28.4c0-0.4,0.8-1.3,1.3-1.8c0.8-0.9,1.8-2,2.2-3.3c0.4-1.4,0.1-2.8-0.2-4.1c-0.1-0.6-0.4-1.8-0.2-2.1
		c0.2-0.3,1.4-0.7,2-0.9c1.2-0.4,2.6-0.8,3.6-1.8c1-1,1.4-2.4,1.8-3.6c0.2-0.6,0.6-1.8,0.9-2c0.3-0.1,1.5,0.1,2.1,0.2
		c1.3,0.3,2.7,0.6,4.1,0.2c1.3-0.4,2.4-1.3,3.3-2.2c0.5-0.4,1.3-1.2,1.7-1.3l0-4.2c-1.9,0.1-3.3,1.3-4.5,2.4
		c-0.5,0.5-1.3,1.1-1.6,1.2c-0.4,0.1-1.4-0.1-2.1-0.3c-1.5-0.3-3.4-0.7-5.1,0.2c-1.7,1-2.3,2.8-2.7,4.3c-0.2,0.7-0.5,1.6-0.8,1.9
		c-0.3,0.3-1.2,0.6-1.9,0.8c-1.5,0.5-3.3,1.1-4.3,2.7c-1,1.6-0.6,3.5-0.2,5.1c0.2,0.8,0.4,1.7,0.3,2.1c-0.1,0.4-0.8,1.1-1.2,1.6
		c-1.1,1.2-2.4,2.6-2.4,4.6c0,0,0,0,0,0L5.7,28.4C5.7,28.4,5.7,28.4,5.7,28.4z"/>
	<path class="st0" d="M26.6,49.8c-0.9-0.8-2-1.8-3.3-2.2c-0.5-0.1-0.9-0.2-1.4-0.2c-0.9,0-1.8,0.2-2.7,0.4c-0.6,0.1-1.8,0.4-2.1,0.2
		c-0.3-0.2-0.7-1.4-0.9-2c-0.4-1.2-0.8-2.6-1.8-3.6c-1-1-2.4-1.5-3.6-1.8c-0.6-0.2-1.8-0.6-2-0.9c-0.1-0.3,0.1-1.5,0.2-2.1
		c0.3-1.3,0.6-2.7,0.2-4.1c-0.4-1.3-1.3-2.4-2.2-3.3c-0.5-0.5-1.3-1.4-1.3-1.8l-4.2,0c0,1.9,1.3,3.4,2.4,4.6
		c0.5,0.5,1.1,1.3,1.2,1.6C5.2,35,5,36,4.9,36.8c-0.3,1.5-0.7,3.4,0.2,5.1c1,1.7,2.8,2.3,4.3,2.7c0.7,0.2,1.6,0.5,1.9,0.8
		c0.3,0.3,0.6,1.2,0.8,1.9c0.5,1.5,1.1,3.3,2.7,4.3c1.6,1,3.5,0.6,5.1,0.2c0.8-0.2,1.7-0.4,2.1-0.3c0.4,0.1,1.1,0.8,1.6,1.2
		c1.2,1.1,2.6,2.4,4.5,2.4l0-4.2C27.9,51,27.1,50.2,26.6,49.8z"/>
</g>
<text transform="matrix(1 0 0 1 69.6357 38.8007)" class="st1 st2 st3">The Impact Wave</text>
</svg>
