<?xml version="1.0" encoding="iso-8859-1"?>
<!-- Uploaded to: SVG Repo, www.svgrepo.com, Generator: SVG Repo Mixer Tools -->
<svg height="800px" width="800px" version="1.1" id="Capa_1" xmlns="http://www.w3.org/2000/svg"
     xmlns:xlink="http://www.w3.org/1999/xlink"
     viewBox="0 0 20.587 20.587" xml:space="preserve">
<g>
	<path style="fill:#5DBD77;" d="M19.862,3.301c-0.664-0.871-1.717-1.373-3.222-1.534c-0.121-0.012-0.248-0.019-0.378-0.019
		c-1.301,0-2.776,0.631-3.637,1.824c-0.861-1.193-2.336-1.824-3.639-1.824c-0.128,0-0.256,0.007-0.377,0.02
		C7.106,1.929,6.052,2.43,5.387,3.301C4.73,4.164,4.517,5.344,4.756,6.81c0.132,0.808,0.575,1.725,1.182,2.666h6.545
		c0.204,0,0.398,0.045,0.577,0.137c0.629,0.318,0.794,1.065,0.812,1.149l0.012,0.056v1.705c0,0.577-0.358,1.003-0.959,1.138
		c-0.201,0.045-0.389,0.045-0.454,0.043h-1.602c0.001,0.001,0.003,0.001,0.004,0.002l0.024,0.013
		c0.238,0.147,0.909,0.391,1.287,0.513c0.37,0.101,0.729,0.151,1.068,0.151c1.513,0,2.448-0.982,3.199-1.771
		c0.437-0.46,0.786-0.824,1.212-0.92c1.379-1.642,2.594-3.439,2.829-4.882C20.731,5.345,20.521,4.164,19.862,3.301z M19.554,7.362
		c0,0-0.255-3.821-3.651-4.331C15.902,3.031,19.978,2.436,19.554,7.362z M0,9.175h2.854v9.662H0V9.175z M18.027,12.29
		c-0.115-0.045-0.232-0.062-0.35-0.041c-0.897,0.164-2.255,3.502-5.79,2.537c0,0-1.032-0.333-1.423-0.574
		c-0.346-0.19-1.079-0.628-1.681-1.084h1.681h1.888c0,0,0.146,0.009,0.316-0.029c0.23-0.053,0.507-0.194,0.507-0.575
		c0-0.66,0-1.647,0-1.647s-0.109-0.549-0.507-0.749c-0.091-0.046-0.194-0.074-0.316-0.074c-0.186,0-0.925,0-1.888,0
		c-1.711,0-4.133,0-5.454,0c-0.579,0-0.948,0-0.948,0v7.027c0,0,5.601,1.757,7.577,1.757c0,0,4.939,0.22,8.235-3.624
		C19.875,15.213,19.015,12.672,18.027,12.29z"/>
</g>
</svg>
